<?xml version="1.0" standalone="no"?>
<!DOCTYPE svg PUBLIC "-//W3C//DTD SVG 1.1//EN" "http://www.w3.org/Graphics/SVG/1.1/DTD/svg11.dtd" >
<svg xmlns="http://www.w3.org/2000/svg" xmlns:xlink="http://www.w3.org/1999/xlink" version="1.1">
<metadata>
Created by FontForge 20161013 at Fri Feb 17 23:38:55 2006
 By ,,,
Copyright (c) Joshua Darden &#38; Phil's Fonts, Inc, 2004. All rights reserved.
</metadata>
<defs>
<font id="Freight-TextBoldItalic" horiz-adv-x="400" >
  <font-face 
    font-family="Freight"
    font-weight="700"
    font-style="italic"
    font-stretch="normal"
    units-per-em="1000"
    panose-1="2 0 8 3 7 0 0 9 0 4"
    ascent="800"
    descent="-200"
    x-height="469"
    cap-height="625"
    bbox="-176 -275 1105 864"
    underline-thickness="20"
    underline-position="-173"
    slope="-12"
    unicode-range="U+0020-FB04"
  />
<missing-glyph horiz-adv-x="500" 
 />
    <glyph glyph-name=".notdef" horiz-adv-x="500" 
 />
    <glyph glyph-name=".null" horiz-adv-x="0" 
 />
    <glyph glyph-name="nonmarkingreturn" horiz-adv-x="333" 
 />
    <glyph glyph-name="space" unicode=" " horiz-adv-x="182" 
 />
    <glyph glyph-name="space" unicode="&#xa0;" horiz-adv-x="182" 
 />
    <glyph glyph-name="exclam" unicode="!" horiz-adv-x="294" 
d="M155 202q-2 -7 -13.5 -7t-11.5 8l4 387q0 23 16.5 36t45.5 13h4q37 0 54.5 -15.5t9.5 -41.5zM192 54q0 -28 -20 -49t-49 -21q-30 0 -50 20.5t-20 49.5t20 49t50 20q29 0 49 -20.5t20 -48.5z" />
    <glyph glyph-name="quotedbl" unicode="&#x22;" horiz-adv-x="380" 
d="M246 403h-44l111 242h1l90 -31zM75 403h-45l111 242h1l91 -31z" />
    <glyph glyph-name="numbersign" unicode="#" horiz-adv-x="581" 
d="M458 398l-45 -173h125l-1 -48h-138l-49 -183h-48l48 183h-157l-49 -183h-49l49 183h-124l1 48h137l45 173h-125l2 47h137l50 186h49l-49 -186h156l50 186h48l-49 -186h125l-2 -47h-137zM409 398h-157l-45 -173h158z" />
    <glyph glyph-name="dollar" unicode="$" horiz-adv-x="539" 
d="M168 -166h-46l41 154q-68 9 -140 30l17 192l64 -1l31 -150q15 -7 43 -15l60 221q-82 41 -121 83t-39 112q0 75 67 126.5t164 51.5q20 0 28 -1l28 101h46l-28 -105q32 -5 84 -18q0 2 28 9q4 1 8 2.5t9.5 3t9.5 2.5l-27 -205l-63 2l-21 134q-9 5 -43 14l-54 -200
q42 -22 66 -37.5t50.5 -39t38 -52.5t11.5 -65q0 -91 -69.5 -144.5t-177.5 -53.5q-16 0 -24 1zM324 585q-8 1 -26 1q-43 0 -73 -22.5t-30 -55.5q0 -35 19.5 -60.5t59.5 -50.5zM222 37q8 -1 24 -1q56 0 86.5 27t31.5 72q0 34 -21.5 59t-64.5 51z" />
    <glyph glyph-name="percent" unicode="%" horiz-adv-x="746" 
d="M390 500q0 -78 -53.5 -132.5t-130.5 -54.5q-66 0 -111 41t-45 108q0 76 53.5 130.5t128.5 54.5q67 0 112.5 -40t45.5 -107zM99 -15h-59l630 654h59zM724 164q0 -78 -54 -132.5t-130 -54.5q-68 0 -111 39.5t-43 107.5q0 78 52.5 132.5t129.5 54.5q66 0 111 -40t45 -107z
M340 490q0 50 -31 81.5t-81 31.5q-54 0 -92 -42t-38 -97q0 -49 32 -79t80 -30q55 0 92.5 39t37.5 96zM676 158q0 47 -32.5 78t-79.5 31q-54 0 -92 -42t-38 -97q0 -49 31 -79t79 -30q55 0 93.5 41.5t38.5 97.5z" />
    <glyph glyph-name="ampersand" unicode="&#x26;" horiz-adv-x="663" 
d="M372 117q-112 -132 -229 -132q-60 0 -100.5 45t-40.5 112q0 75 52.5 122.5t120.5 61.5v2q-69 62 -69 138q0 78 65.5 125.5t149.5 47.5q78 0 128 -36.5t50 -95.5q0 -116 -186 -159v-2l127 -135h2l106 95v2q-40 21 -40 58q0 29 20.5 47t50.5 18q33 0 54.5 -22t21.5 -53
q0 -44 -36 -78.5t-113 -69.5l-42 -22l152 -162l-122 -47l-120 140h-2zM383 504q0 39 -20 66t-55 27q-38 0 -61.5 -27t-23.5 -67q0 -43 14.5 -70.5t47.5 -60.5q98 56 98 132zM200 304q-84 -60 -84 -132q0 -42 25.5 -67t65.5 -25q57 0 140 60z" />
    <glyph glyph-name="quotesingle" unicode="'" horiz-adv-x="209" 
d="M75 403h-45l111 242h1l91 -31z" />
    <glyph glyph-name="parenleft" unicode="(" horiz-adv-x="395" 
d="M359 -253q-44 22 -89 62t-86.5 97t-67.5 137t-26 167t26 166.5t68 136.5t86 97t89 63l27 -39q-40 -22 -80 -61t-77 -92t-60 -124t-23 -147t23 -148t60 -125t77 -91.5t80 -59.5z" />
    <glyph glyph-name="parenright" unicode=")" horiz-adv-x="395" 
d="M9 -215q89 47 164.5 163.5t75.5 261.5q0 76 -23 147t-60 124t-77 92t-80 61l29 39q44 -22 88 -62.5t85.5 -97.5t67.5 -137t26 -166t-26 -166t-67.5 -137.5t-86 -98t-87.5 -61.5z" />
    <glyph glyph-name="asterisk" unicode="*" horiz-adv-x="354" 
d="M339 426l-102 41l-10 -13l72 -84l-19 -57l-21 -7l-50 34l5 111l-15 4l-54 -93l-61 -2l-15 17l16 60l105 28v20l-105 29l-16 59l14 18l62 -2l54 -94l16 5l-5 110l50 33l21 -7l19 -57l-73 -84l10 -13l102 41l48 -38v-22z" />
    <glyph glyph-name="plus" unicode="+" horiz-adv-x="480" 
d="M269 281v-182h-57v182h-183l3 57h180v183h57v-183h179l3 -57h-182z" />
    <glyph glyph-name="comma" unicode="," horiz-adv-x="232" 
d="M175 38q0 -112 -188 -209l-25 24q110 65 110 134q0 16 -7 30.5t-17 24t-20 17t-17 11.5t-7 5q0 24 23.5 43.5t53.5 19.5q41 0 67.5 -29t26.5 -71z" />
    <glyph glyph-name="hyphen" unicode="-" horiz-adv-x="333" 
d="M33 215l3 60h263l3 -60h-269z" />
    <glyph glyph-name="period" unicode="." horiz-adv-x="232" 
d="M173 62q0 -31 -22.5 -54.5t-54.5 -23.5q-33 0 -55.5 23t-22.5 55t22.5 54.5t55.5 22.5t55 -22.5t22 -54.5z" />
    <glyph glyph-name="slash" unicode="/" horiz-adv-x="279" 
d="M220 665h53l-216 -877h-53z" />
    <glyph glyph-name="zero" unicode="0" horiz-adv-x="514" 
d="M471 272q0 -114 -65.5 -200.5t-168.5 -86.5q-86 0 -142.5 58.5t-56.5 158.5q0 115 66 201.5t168 86.5q86 0 142.5 -59t56.5 -159zM388 272q0 62 -34.5 102t-84.5 40t-85 -36.5t-49 -82.5t-14 -93q0 -62 34 -101.5t85 -39.5q50 0 85 36.5t49 82t14 92.5z" />
    <glyph glyph-name="one" unicode="1" horiz-adv-x="381" 
d="M21 0l6 42l65 11q24 4 26 23l43 324l-106 13l8 34l227 44l-55 -415q-2 -19 20 -23l66 -11v-42h-300z" />
    <glyph glyph-name="two" unicode="2" horiz-adv-x="471" 
d="M373 0h-366l3 73q154 102 190 132q74 61 77 112q2 41 -22.5 66t-69.5 27q-58 4 -130 -53l-8 28q43 46 103.5 75.5t118.5 27.5q64 -2 103.5 -38t35.5 -93q-1 -26 -15 -51.5t-31 -44.5t-52.5 -44t-59 -39.5t-72.5 -43.5t-72 -43l-1 -5h32q129 0 165.5 7t55.5 34l28 42h43z
" />
    <glyph glyph-name="three" unicode="3" horiz-adv-x="436" 
d="M380 37q0 -94 -90.5 -164t-188.5 -70q-50 0 -97.5 21.5t-47.5 65.5q0 25 17.5 43t43.5 18q35 0 54.5 -30.5t19.5 -67.5q11 -3 23 -3q61 0 101.5 45t40.5 106q0 52 -31 85t-84 33q-27 0 -73 -14l-13 31q39 20 57 30t51.5 31.5t49.5 38t30 40t14 47.5q0 41 -27 64t-68 23
q-53 0 -131 -54l-9 29q104 104 220 104q59 0 103.5 -32t44.5 -89q0 -36 -19 -67.5t-56 -57t-63 -39.5t-68 -34v-5q24 7 53 7q61 0 102 -37.5t41 -97.5z" />
    <glyph glyph-name="four" unicode="4" horiz-adv-x="523" 
d="M376 29l-27 -213h-111l27 213h-270l-2 45l393 422l50 -11l-52 -401h120l-15 -55h-113zM312 345h-5l-244 -261h210z" />
    <glyph glyph-name="five" unicode="5" horiz-adv-x="463" 
d="M423 372h-251l-43 -106q243 -93 243 -243q0 -97 -79 -160t-178 -63q-32 0 -64.5 6.5t-62.5 27.5t-30 53q0 27 17 45t43 18q37 0 54 -28t17 -67q24 -10 48 -10q54 0 91 36t37 90q0 39 -21.5 73.5t-60.5 61t-70 42.5t-72 33l117 295h282z" />
    <glyph glyph-name="six" unicode="6" horiz-adv-x="541" 
d="M500 243q0 -107 -79 -182.5t-171 -75.5q-91 0 -150.5 65.5t-59.5 171.5q0 109 71 208t188 162.5t248 75.5l18 -37q-152 -34 -254.5 -112.5t-146.5 -194.5l8 -2q81 99 177 99q63 0 107 -48.5t44 -129.5zM379 230q0 59 -26 94t-62 35q-69 0 -119 -87q-16 -48 -16 -96
q0 -66 26 -107t71 -41q52 0 89 59.5t37 142.5z" />
    <glyph glyph-name="seven" unicode="7" horiz-adv-x="476" 
d="M84 -184h-73l366 562l1 3h-90q-107 0 -133 -5t-39 -24l-38 -60h-38l48 184h386v-42z" />
    <glyph glyph-name="eight" unicode="8" horiz-adv-x="529" 
d="M478 171q0 -86 -68.5 -135.5t-159.5 -49.5q-85 0 -150.5 42.5t-65.5 117.5q0 63 43 103t109 56v3q-97 58 -97 145q0 84 63 134.5t151 50.5q81 0 139 -40.5t58 -113.5q0 -108 -140 -147v-3q118 -66 118 -163zM388 484q0 48 -25 81t-71 33q-43 0 -68.5 -26t-25.5 -70
q0 -25 10 -46t33.5 -41t36.5 -29t45 -29q65 43 65 127zM368 123q0 28 -12.5 52.5t-38 45.5t-44.5 33t-50 30q-76 -50 -76 -137q0 -55 31.5 -87.5t85.5 -32.5q47 0 75.5 24.5t28.5 71.5z" />
    <glyph glyph-name="nine" unicode="9" horiz-adv-x="541" 
d="M37 232q0 107 79 182.5t171 75.5q91 0 150.5 -65t59.5 -171q0 -109 -71 -208.5t-188 -163t-248 -75.5l-18 38q151 33 253.5 110.5t147.5 190.5l-8 2q-81 -99 -177 -99q-62 0 -106.5 51t-44.5 132zM158 245q0 -60 26 -97t63 -37q68 0 118 87q16 54 16 101q0 66 -26 107
t-70 41q-52 0 -89.5 -60t-37.5 -142z" />
    <glyph glyph-name="colon" unicode=":" horiz-adv-x="232" 
d="M215 365q0 -33 -22 -55.5t-55 -22.5q-34 0 -56.5 22.5t-22.5 55.5q0 32 22.5 54.5t56.5 22.5q32 0 54.5 -23t22.5 -54zM173 62q0 -31 -22.5 -54.5t-54.5 -23.5q-33 0 -55.5 23t-22.5 55t22.5 54.5t55.5 22.5t55 -22.5t22 -54.5z" />
    <glyph glyph-name="semicolon" unicode=";" horiz-adv-x="232" 
d="M215 365q0 -33 -22 -55.5t-55 -22.5t-55.5 23t-22.5 55t22.5 54.5t55.5 22.5q32 0 54.5 -23t22.5 -54zM175 33q0 -112 -188 -209l-25 24q110 65 110 134q0 16 -7 30.5t-17 24t-20 17t-17 11.5t-7 5q0 24 23.5 43.5t53.5 19.5q41 0 67.5 -29t26.5 -71z" />
    <glyph glyph-name="less" unicode="&#x3c;" horiz-adv-x="480" 
d="M27 216v37l406 188l15 -57l-325 -148v-2l325 -147l-15 -58z" />
    <glyph glyph-name="equal" unicode="=" horiz-adv-x="475" 
d="M43 292l-4 63h398l-4 -63h-390zM39 114l4 63h390l4 -63h-398z" />
    <glyph glyph-name="greater" unicode="&#x3e;" horiz-adv-x="480" 
d="M42 29l-15 58l325 147v2l-325 148l15 57l406 -188v-37z" />
    <glyph glyph-name="question" unicode="?" horiz-adv-x="388" 
d="M389 461q0 -36 -11.5 -63t-34 -44t-43 -26t-49.5 -18q-4 -1 -15.5 -5t-15.5 -5.5t-13.5 -4.5t-13 -5.5t-10.5 -6t-9.5 -7t-6 -7.5t-5 -9t-1.5 -11q0 -32 34 -63l-49 1q-23 16 -40.5 43t-17.5 56q0 28 12 49t35.5 35t44 22t51.5 17q25 7 35.5 10t26.5 9.5t22.5 14
t6.5 16.5q0 29 -43 51t-103 22q-29 0 -63 -6q-15 17 -15 38q0 33 25.5 54t72.5 21q78 0 135.5 -52.5t57.5 -125.5zM197 54q0 -28 -20 -49t-49 -21q-30 0 -50 20.5t-20 49.5t20 49t50 20q29 0 49 -20.5t20 -48.5z" />
    <glyph glyph-name="at" unicode="@" horiz-adv-x="872" 
d="M482 117q0 6 7 32t16.5 57t10.5 36h-13q-30 -50 -46 -75.5t-40 -57.5t-45 -45.5t-43 -13.5q-46 0 -78 33t-32 80q0 60 33.5 136t80.5 122q57 57 119 57q70 0 93 -78h10l27 71h87l-60 -168l-35 -173q-4 -18 14 -31.5t50 -13.5q63 0 107.5 62t46.5 152q6 141 -88.5 228
t-245.5 89q-148 2 -256.5 -104.5t-112.5 -253.5q-4 -160 94.5 -260.5t248.5 -100.5q59 0 127 20l11 -37q-72 -25 -143 -25q-164 0 -277 114.5t-107 285.5q4 169 126 286.5t293 115.5q165 -2 273.5 -101t102.5 -255q-4 -115 -72.5 -191.5t-163.5 -76.5q-64 0 -94 26t-26 58z
M525 354q-12 24 -44 45t-56 21q-20 0 -33 -13q-21 -21 -45 -94.5t-24 -122.5q0 -28 14.5 -46t33.5 -18q20 0 48.5 38t71.5 106q7 12 11 18q4 5 13.5 34t9.5 32z" />
    <glyph glyph-name="A" unicode="A" horiz-adv-x="620" 
d="M304 0l3 41l39 6q26 4 30.5 20t-4.5 57l-14 84h-188l-17 -46q-43 -102 11 -113l36 -8l3 -41h-237l3 41l28 9q32 9 50 30.5t58 107.5l174 384v38l133 30l108 -549q4 -19 11.5 -27.5t26.5 -13.5l38 -9l3 -41h-295zM309 514h-8l-111 -257h160z" />
    <glyph glyph-name="B" unicode="B" horiz-adv-x="609" 
d="M570 172q0 -59 -46 -108q-67 -64 -201 -64h-316l4 40l49 11q22 5 26 24l64 475q5 19 -20 24l-45 11l-3 40h292q107 0 160 -37.5t53 -103.5q0 -62 -48 -102.5t-122 -58.5q0 3 2 -1q1 -2 1 -4q65 -13 107.5 -50t42.5 -96zM448 463q0 55 -38 86.5t-99 31.5h-23l-33 -238h57
q58 0 97 31.5t39 88.5zM426 168q0 59 -36.5 94.5t-92.5 35.5h-48l-33 -244l55 -11h21q59 0 96.5 36.5t37.5 88.5z" />
    <glyph glyph-name="C" unicode="C" horiz-adv-x="650" 
d="M555 0l-60 12q-75 -28 -154 -28q-143 0 -217.5 76t-74.5 206q0 72 30 142t84 124q107 107 253 107q39 0 84 -8t67 -17l86 23l-30 -223h-69l-23 144q-45 32 -105 32q-96 0 -163.5 -98t-67.5 -239q0 -121 62 -181q39 -39 103 -39q50 0 96 24l70 149h76z" />
    <glyph glyph-name="D" unicode="D" horiz-adv-x="686" 
d="M664 349q0 -141 -102 -243q-48 -49 -126 -77.5t-172 -28.5h-257l4 40l49 11q22 5 26 24l64 475q5 19 -20 24l-45 11l-3 40q51 1 137 1h129q149 0 232.5 -76t83.5 -201zM520 350q0 107 -47 168t-146 61h-40l-70 -519l67 -15q103 4 169.5 85t66.5 220z" />
    <glyph glyph-name="E" unicode="E" horiz-adv-x="627" 
d="M539 0h-532l4 40l49 11q22 5 26 24l65 475q5 19 -20 24l-46 11l-2 40h541l-27 -206h-69l-11 83q-6 53 -38 65.5t-152 12.5h-39l-34 -242h19q45 0 64.5 6t30.5 26l34 68h51l-55 -242h-51l1 64q0 19 -16 26t-69 7h-15l-33 -248h43q122 0 159.5 13t61.5 65l34 74h72z" />
    <glyph glyph-name="F" unicode="F" horiz-adv-x="602" 
d="M513 419l-11 83q-8 54 -39 66t-152 12h-23l-34 -254h22q47 0 66 5.5t30 27.5l34 68h50l-55 -242h-50l4 63q1 20 -17 26.5t-72 6.5h-20l-27 -206q-3 -19 20 -24l52 -11l3 -40h-287l4 40l49 11q22 5 26 24l65 475q5 19 -20 24l-46 11l-2 40h526l-27 -206h-69z" />
    <glyph glyph-name="G" unicode="G" horiz-adv-x="701" 
d="M670 243l-47 -11q-24 -6 -27 -24l-24 -142l58 -9l3 -33q-147 -40 -278 -40q-152 0 -229 75t-77 207q0 72 30 142t84 124q49 49 119 78t144 29q39 0 84 -8t67 -17l86 23l-30 -220h-69l-22 141q-47 32 -116 32q-96 0 -163.5 -98t-67.5 -239q0 -121 62 -181q39 -39 106 -39
q42 0 79 13l25 162q2 11 -2.5 16t-19.5 8l-47 11l-3 40h279z" />
    <glyph glyph-name="H" unicode="H" horiz-adv-x="741" 
d="M397 0l3 40l49 11q14 3 19 7.5t7 16.5l30 220h-256l-30 -220q-3 -19 20 -24l47 -11l3 -40h-280l3 40l49 11q22 5 26 24l64 475q5 19 -20 24l-45 11l-3 40h280l-3 -40l-50 -11q-23 -6 -26 -24l-28 -206h256l28 206q2 11 -2 16t-18 8l-46 11l-3 40h281l-4 -40l-49 -11
q-23 -6 -26 -24l-65 -475q-3 -19 20 -24l46 -11l3 -40h-280z" />
    <glyph glyph-name="I" unicode="I" horiz-adv-x="373" 
d="M9 0l3 40l59 11q22 5 26 24l65 475q5 20 -20 24l-56 11l-3 40h300l-3 -40l-60 -11q-23 -5 -26 -24l-64 -475q-3 -18 20 -24l56 -11l4 -40h-301z" />
    <glyph glyph-name="J" unicode="J" horiz-adv-x="441" 
d="M460 585l-53 -11q-23 -5 -26 -24l-40 -298q-36 -268 -235 -268q-56 0 -91.5 23t-35.5 62q1 24 19 40t42 16q78 0 84 -102h1q31 16 48.5 58.5t29.5 131.5l45 337q5 20 -20 24l-65 11l-3 40h304z" />
    <glyph glyph-name="K" unicode="K" horiz-adv-x="671" 
d="M378 0l3 40l26 9q21 6 6 35l-105 211l-69 -58l-21 -162q-3 -19 20 -24l46 -11l2 -40h-280l4 40l49 11q22 5 26 24l65 475q5 19 -20 24l-46 11l-2 40h280l-4 -40l-50 -11q-23 -6 -26 -24l-32 -247l175 165q70 67 70 86q-2 18 -24 25l-26 7l-2 39h261l-4 -38l-26 -7
q-48 -12 -134 -82l-138 -120l153 -281q10 -20 19.5 -30.5t16 -14t22.5 -8.5l18 -4l2 -40h-255z" />
    <glyph glyph-name="L" unicode="L" horiz-adv-x="579" 
d="M495 0h-489l4 40l49 11q21 4 26 24l64 475q5 19 -20 24l-46 11l-2 40h284l-4 -40l-53 -11q-23 -6 -26 -24l-68 -505h30q98 0 134 15t58 63l37 83h71z" />
    <glyph glyph-name="M" unicode="M" horiz-adv-x="863" 
d="M525 0l3 40l54 12q16 4 24 36.5t20 146.5l33 313h-10l-238 -528h-120l-64 537h-10l-53 -318q-11 -70 -16 -104t-5.5 -53.5t2.5 -23.5t11 -6l55 -12l3 -40h-222l3 40l53 12q13 3 19.5 11.5t17.5 49.5t25 126l52 310q5 22 -17 26l-58 10l-2 40h263l56 -474h10l214 474h251
l-3 -40l-59 -11q-25 -5 -26 -25l-34 -314q-13 -124 -11.5 -151.5t20.5 -31.5l50 -12l2 -40h-293z" />
    <glyph glyph-name="N" unicode="N" horiz-adv-x="715" 
d="M738 585l-48 -10q-26 -6 -39.5 -43.5t-28.5 -155.5l-53 -384h-97l-262 509h-7l-34 -252q-17 -122 -14.5 -158.5t25.5 -40.5l52 -10l3 -40h-239l3 40l48 10q25 6 38.5 44t28.5 155l37 268q3 26 -1.5 39t-22.5 18l-43 11l-2 40h209l238 -465h8l29 216q17 124 15 159.5
t-24 39.5l-54 10l-3 40h241z" />
    <glyph glyph-name="O" unicode="O" horiz-adv-x="715" 
d="M686 348q0 -154 -111 -268q-93 -95 -233 -95q-128 0 -211 81.5t-83 208.5q0 148 95 252q103 111 250 111q129 0 211 -81t82 -209zM543 378q0 117 -52 173q-41 38 -101 38q-53 0 -93.5 -37t-62.5 -93.5t-32.5 -111.5t-10.5 -103q0 -118 53 -170q39 -39 100 -39
q53 0 93.5 37t62.5 93t32.5 111t10.5 102z" />
    <glyph glyph-name="P" unicode="P" horiz-adv-x="588" 
d="M584 449q0 -93 -78.5 -147.5t-195.5 -54.5q-32 0 -67 5l-24 -177q-3 -21 20 -24l62 -11l2 -40h-296l4 40l49 11q22 5 26 24l65 475q5 19 -20 24l-46 11l-2 40h265q107 0 171.5 -47t64.5 -129zM447 444q0 61 -37.5 99.5t-92.5 38.5h-29l-40 -287q32 -6 48 -6
q68 0 109.5 41.5t41.5 113.5z" />
    <glyph glyph-name="Q" unicode="Q" horiz-adv-x="717" 
d="M653 -174q-61 -19 -156 -20q-104 0 -163 42t-112 159q-80 33 -127 103.5t-47 164.5q0 146 94 251q100 112 250 112q128 0 211 -81.5t83 -208.5q0 -77 -28.5 -146.5t-80.5 -120.5q-80 -80 -194 -93q44 -71 103 -99.5t164 -30.5zM543 379q0 117 -53 173q-40 38 -100 38
q-53 0 -93.5 -37.5t-62 -94.5t-32 -112t-10.5 -103q0 -118 52 -170q39 -39 102 -39q52 0 92.5 37t62 93.5t32 111.5t10.5 103z" />
    <glyph glyph-name="R" unicode="R" horiz-adv-x="633" 
d="M423 0l-34 80l-90 188l-52 3l-28 -196q-3 -16 20 -24l44 -11l3 -40h-278l3 40l49 11q21 4 26 24l63 475q3 19 -20 24l-46 11l-2 40h295q104 0 162 -42t58 -107q0 -68 -45 -116t-130 -71l109 -197q21 -38 54 -48l17 -4l2 -40h-180zM450 454q0 59 -35 93t-93 34h-35
l-35 -259l62 -13q61 9 98.5 45.5t37.5 99.5z" />
    <glyph glyph-name="S" unicode="S" horiz-adv-x="535" 
d="M480 183q0 -91 -69.5 -144.5t-177.5 -53.5t-210 33l17 192l64 -1l31 -150q49 -22 112 -22q54 0 84 26.5t31 70.5q0 22 -8.5 39.5t-26 32.5t-36 26.5t-45.5 27.5q-7 4 -11 6q-85 46 -121 85t-36 109q0 75 67 126.5t164 51.5q64 0 158 -23q0 2 28 9q4 1 8 2.5t9.5 3
t9.5 2.5l-27 -205l-63 2l-21 134q-54 22 -114 22q-41 0 -70.5 -22.5t-29.5 -54.5q0 -24 8.5 -43t30.5 -37t39 -28.5t55 -31.5q75 -40 112.5 -80t37.5 -105z" />
    <glyph glyph-name="T" unicode="T" horiz-adv-x="641" 
d="M572 415l-11 83q-6 51 -31.5 66.5t-93.5 15.5h-6l-67 -505q-3 -19 20 -24l60 -11l3 -40h-306l3 40l62 11q24 4 26 24l67 505h-4q-68 0 -95.5 -14t-50.5 -65l-35 -86h-72l45 210h578l-27 -210h-65z" />
    <glyph glyph-name="U" unicode="U" horiz-adv-x="708" 
d="M737 585l-48 -10q-25 -6 -37.5 -42t-30.5 -157l-24 -170q-17 -113 -87 -170t-176 -57q-108 0 -173 52t-65 151q0 30 3 55l43 313q5 19 -20 24l-45 11l-3 40h280l-3 -40l-50 -11q-23 -6 -26 -24l-43 -313q-5 -28 -5 -60q0 -62 39 -97.5t106 -35.5q72 0 115 42t57 137
l22 153q17 123 14.5 159t-25.5 40l-52 10l-3 40h240z" />
    <glyph glyph-name="V" unicode="V" horiz-adv-x="612" 
d="M673 584l-30 -9q-31 -9 -48.5 -31t-58.5 -107l-206 -437h-110l-110 534q-3 18 -11 27t-27 14l-37 9l-3 41h295l-3 -41l-40 -6q-26 -4 -30.5 -20t4.5 -57l67 -386h7l159 360q41 90 -14 101l-34 8l-3 41h236z" />
    <glyph glyph-name="W" unicode="W" horiz-adv-x="932" 
d="M1003 584l-30 -9q-35 -11 -57.5 -36.5t-57.5 -101.5l-186 -437h-114l-56 385h-7l-175 -385h-115l-94 534q-4 19 -11.5 28.5t-26.5 12.5l-41 9l-3 41h301l-3 -41l-42 -6q-38 -5 -26 -77l52 -388h7l158 356l-10 65q-2 18 -10.5 27.5t-27.5 13.5l-41 9l-3 41h300l-3 -41
l-42 -6q-22 -3 -27.5 -20.5t1.5 -56.5l51 -387h8l130 330q28 66 27 95.5t-30 36.5l-30 8l-3 41h240z" />
    <glyph glyph-name="X" unicode="X" horiz-adv-x="640" 
d="M322 0l3 40l34 6q49 11 9 81l-67 133h-7l-105 -127q-61 -69 2 -86l30 -7l3 -40h-248l3 40l35 9q42 9 103 78l155 173l-110 194q-24 42 -36.5 58.5t-27.5 21.5l-37 11l-2 40h292l-4 -40l-33 -6q-48 -12 -9 -81l55 -111h7l97 117q54 60 -3 74l-31 7l-3 40h239l-3 -40
l-35 -9q-46 -11 -115 -92l-122 -136l123 -224q22 -40 33.5 -54t27.5 -19l36 -11l3 -40h-292z" />
    <glyph glyph-name="Y" unicode="Y" horiz-adv-x="597" 
d="M655 584l-24 -7q-29 -7 -53 -27t-64 -78l-144 -209l-24 -188q-3 -19 20 -24l59 -11l-1 -40h-307l6 40l64 11q21 4 26 24l24 182l-122 265q-13 25 -24 36t-29 16l-30 10l-3 41h287l-3 -41l-40 -6q-26 -4 -26.5 -27t20.5 -71l71 -174h8l115 173q32 47 33 69.5t-30 28.5
l-36 7l-3 41h233z" />
    <glyph glyph-name="Z" unicode="Z" horiz-adv-x="602" 
d="M511 0h-507l7 45l443 526v8h-103q-89 0 -119 -15.5t-55 -69.5l-31 -77h-67l27 208h512l-6 -46l-448 -526l-1 -8h105q53 0 85.5 4t52 17t28 24.5t22.5 37.5l32 72h71z" />
    <glyph glyph-name="bracketleft" unicode="[" horiz-adv-x="368" 
d="M92 -222v873h258v-48h-203v-777h203v-48h-258z" />
    <glyph glyph-name="backslash" unicode="\" horiz-adv-x="279" 
d="M221 -212l-216 877h53l216 -877h-53z" />
    <glyph glyph-name="bracketright" unicode="]" horiz-adv-x="368" 
d="M18 -174h203v777h-203v48h258v-873h-258v48z" />
    <glyph glyph-name="asciicircum" unicode="^" 
d="M327 515l-86 120h-2l-118 -120h-46l115 182h118l65 -182h-46z" />
    <glyph glyph-name="underscore" unicode="_" horiz-adv-x="470" 
d="M-24 -53l3 53h482l3 -53h-488z" />
    <glyph glyph-name="grave" unicode="`" horiz-adv-x="399" 
d="M245 515l-151 182h127l70 -182h-46z" />
    <glyph glyph-name="a" unicode="a" horiz-adv-x="528" 
d="M376 391l27 77h103l-60 -181l-53 -224l27 -9l74 51l17 -21q-23 -40 -63 -70t-77 -30q-21 0 -55.5 14t-34.5 27q0 9 8.5 36t25 73t22.5 66h-10q-8 -13 -24.5 -40.5t-23.5 -39t-20.5 -33t-20.5 -30.5t-19 -24t-20.5 -21.5t-19.5 -14t-21.5 -10t-22.5 -2.5q-50 0 -81.5 35.5
t-31.5 99.5q0 73 34 150t86 129q69 69 139 69q66 0 87 -77h8zM354 329q-18 30 -50.5 53.5t-58.5 23.5q-17 0 -33 -16q-30 -30 -54.5 -104t-24.5 -134q0 -38 13.5 -58.5t37.5 -20.5t48.5 29.5t77.5 114.5q14 21 21 33z" />
    <glyph glyph-name="b" unicode="b" horiz-adv-x="508" 
d="M479 324q0 -73 -31 -146t-81 -123q-71 -71 -163 -71q-40 0 -81.5 17.5t-64.5 37t-21 28.5l99 490q6 26 -12 34l-57 27l6 28l204 51l-57 -229l-54 -215h10q58 114 101 165t92 51q47 0 78.5 -40t31.5 -105zM368 292q0 38 -13 63.5t-35 25.5q-26 0 -51.5 -32t-73.5 -112
q-17 -29 -26 -44l-25 -93q23 -29 56.5 -48.5t55.5 -19.5q16 0 32 16q33 33 56.5 107.5t23.5 136.5z" />
    <glyph glyph-name="c" unicode="c" horiz-adv-x="426" 
d="M318 391q-29 21 -79 21q-7 0 -19 -12q-26 -24 -52.5 -97t-26.5 -137q0 -48 24.5 -77.5t63.5 -29.5q30 0 127 66l16 -21q-89 -119 -188 -119q-72 0 -114 47.5t-42 120.5q0 116 81 216t190 100q53 0 89 -28.5t36 -71.5q0 -31 -19 -52t-44 -21q-28 0 -41.5 15.5t-13.5 39.5
q0 21 12 40z" />
    <glyph glyph-name="d" unicode="d" horiz-adv-x="528" 
d="M511 84q-23 -40 -63 -70t-77 -30q-20 0 -53.5 19t-33.5 32q0 9 8 33.5t23.5 69t21.5 62.5h-10q-8 -13 -24.5 -40.5t-23.5 -39t-20.5 -33t-20.5 -30.5t-19 -24t-20.5 -21.5t-19.5 -14t-21.5 -10t-22.5 -2.5q-50 0 -81.5 35.5t-31.5 99.5q0 73 34 150t86 129q69 69 139 69
q35 0 52 -20t28 -57h8l35 166q6 26 -12 34l-57 27l6 28l205 52l-110 -443l-43 -192l27 -9l74 51zM354 329q-18 30 -50.5 53.5t-58.5 23.5q-17 0 -33 -16q-30 -30 -54.5 -104t-24.5 -134q0 -38 13.5 -58.5t37.5 -20.5t48.5 29.5t77.5 114.5q14 21 21 33z" />
    <glyph glyph-name="e" unicode="e" horiz-adv-x="422" 
d="M141 157q0 -43 25 -70.5t63 -27.5q30 0 127 66l16 -21q-89 -119 -188 -119q-73 0 -114.5 47.5t-41.5 120.5q0 74 35.5 147t97.5 121t131 48q58 0 90.5 -28t32.5 -72q0 -12 -3 -22t-10.5 -20t-15 -18.5t-23.5 -19t-29 -18.5t-37.5 -21t-44 -23t-52.5 -27t-59 -30v-13z
M143 205q100 55 137 87.5t37 71.5q0 18 -27 32.5t-47 14.5t-31 -11q-19 -19 -41 -75t-31 -120h3z" />
    <glyph glyph-name="f" unicode="f" horiz-adv-x="303" 
d="M470 603q0 -27 -17.5 -46.5t-43.5 -19.5q-31 0 -50.5 27t-25.5 69l-63 -11q-24 -61 -40 -174h120l4 -57h-134l-60 -298q-41 -214 -112 -287q-51 -52 -125 -52q-42 0 -70.5 22.5t-28.5 57.5q0 27 16.5 44t41.5 17q31 0 50.5 -23.5t23.5 -58.5l53 16q18 41 39 168l60 387
l-87 7l3 34l97 31q23 112 81 170q67 67 157 67q50 0 80.5 -25.5t30.5 -64.5z" />
    <glyph glyph-name="g" unicode="g" horiz-adv-x="466" 
d="M360 390l-1 -10q51 -40 51 -99q0 -69 -57 -113.5t-132 -44.5q-37 0 -70 10q-15 -4 -25 -16.5t-10 -24.5q0 -17 19 -27.5t63 -25.5l46 -13q77 -23 116 -53.5t39 -83.5q0 -61 -72 -106t-197 -45q-89 0 -144 31.5t-55 86.5q0 42 39.5 72t98.5 46v8q-43 27 -43 66q0 67 91 95
v8q-71 45 -71 125q0 83 62 138t150 55q59 0 119 -20l126 2l-25 -90zM312 356q0 21 -24 39.5t-50 18.5q-21 0 -32 -11q-25 -25 -39.5 -73t-14.5 -91q2 -44 22 -64q13 -13 31 -13q31 0 55 26q26 26 39 74.5t13 93.5zM309 -149q0 23 -25 40.5t-84 36.5q-73 23 -101 36
q-73 -35 -73 -89q0 -39 42.5 -63.5t113.5 -24.5q54 0 90.5 18.5t36.5 45.5z" />
    <glyph glyph-name="h" unicode="h" horiz-adv-x="532" 
d="M501 84q-23 -40 -62.5 -70t-76.5 -30q-21 0 -55 14.5t-34 27.5q0 19 56 189q33 106 33 126q0 15 -14 25t-32 10q-24 0 -56.5 -51.5t-92.5 -175.5l-33 -151l-121 -1l37 150l86 410q6 26 -12 34l-57 27l6 28l204 51l-57 -230l-62 -260h11q84 181 121 218q44 44 96 44
q38 0 63 -22.5t25 -57.5q0 -45 -46 -189q-3 -10 -45 -137l27 -9l74 51z" />
    <glyph glyph-name="i" unicode="i" horiz-adv-x="280" 
d="M299 622q0 -36 -20.5 -61.5t-47.5 -25.5q-31 0 -48.5 19.5t-17.5 47.5q0 36 20.5 62t47.5 26q31 0 48.5 -19.5t17.5 -48.5zM261 84q-23 -40 -62.5 -70t-76.5 -30q-20 0 -55.5 16t-33.5 26l96 362l-30 6l-65 -72l-20 22q20 47 57.5 86t72.5 39q9 0 26.5 -4.5t34 -10.5
t28.5 -13.5t10 -13.5l-100 -364l27 -9l74 51z" />
    <glyph glyph-name="j" unicode="j" horiz-adv-x="267" 
d="M302 622q0 -36 -20.5 -61.5t-47.5 -25.5q-31 0 -48.5 19.5t-17.5 47.5q0 36 20.5 62t47.5 26q31 0 48.5 -19.5t17.5 -48.5zM160 79q-50 -216 -122 -288q-54 -52 -115 -52q-40 0 -67 21.5t-27 55.5q0 26 17.5 42.5t41.5 16.5q29 0 49 -21t27 -54l25 6q19 45 54 204l86 377
l-34 8l-63 -73l-21 22q20 47 57.5 86t73.5 39q21 0 62 -15t37 -27z" />
    <glyph glyph-name="k" unicode="k" horiz-adv-x="471" 
d="M460 102q-16 -44 -58 -79.5t-81 -35.5q-11 0 -30.5 8.5t-21.5 15.5l-70 209l-37 -16l-29 -206l-120 -1l37 150l86 410q6 26 -12 34l-57 27l6 28l202 51l-56 -229l-58 -227h7l193 102v12q-44 13 -44 58q0 28 21 47.5t50 19.5q33 0 55.5 -22t22.5 -52q0 -52 -40 -81
t-133 -65l31 -104l49 -85l43 32z" />
    <glyph glyph-name="l" unicode="l" horiz-adv-x="273" 
d="M254 84q-23 -40 -63 -70t-77 -30q-20 0 -55 16t-33 26l110 531q6 26 -12 34l-57 27l6 28l200 51l-138 -634l28 -9l73 51z" />
    <glyph glyph-name="m" unicode="m" horiz-adv-x="815" 
d="M794 84q-23 -40 -63 -70t-77 -30q-21 0 -54.5 14.5t-33.5 27.5q0 10 6.5 34t24 77.5t24.5 77.5q34 102 34 126q0 15 -14 25t-32 10q-24 0 -58 -52.5t-93 -174.5l-39 -151l-122 -1l50 178q4 16 17 60t19 69.5t6 36.5q0 15 -14 25t-32 10q-24 0 -56.5 -51.5t-92.5 -175.5
l-33 -151l-121 -1l37 150l49 241l-29 6l-64 -72l-21 22q23 49 59 87t72 38q23 0 60 -11.5t37 -24.5q0 -41 -55 -226h11q84 181 121 218q44 44 96 44q38 0 60 -22.5t22 -59.5q0 -19 -9 -55.5t-22.5 -78t-14.5 -46.5h11q79 175 122 218q44 44 97 44q38 0 63 -22.5t25 -57.5
q0 -51 -46 -189q-5 -17 -25 -76t-21 -61l28 -9l73 51z" />
    <glyph glyph-name="n" unicode="n" horiz-adv-x="550" 
d="M528 84q-23 -40 -62.5 -70t-76.5 -30q-21 0 -55 14.5t-34 27.5q0 19 56 189q33 106 33 126q0 15 -14 25t-32 10q-24 0 -56.5 -51.5t-92.5 -175.5l-33 -151l-121 -1l37 150l49 238l-28 7l-66 -70l-20 22q23 48 58.5 86.5t71.5 38.5q23 0 60.5 -11.5t37.5 -24.5
q0 -41 -55 -226h11q84 181 121 218q44 44 96 44q38 0 63 -22.5t25 -57.5q0 -45 -46 -189q-5 -17 -25 -76.5t-20 -60.5l27 -9l74 51z" />
    <glyph glyph-name="o" unicode="o" horiz-adv-x="481" 
d="M449 265q0 -109 -70 -194.5t-171 -85.5q-84 0 -130.5 55.5t-46.5 147.5q0 109 71 195t171 86q84 0 130 -56t46 -148zM340 313q0 47 -17.5 77.5t-49.5 30.5q-41 0 -73.5 -54.5t-46.5 -120.5q-13 -57 -13 -101q0 -47 18 -80t49 -33q29 0 55 30.5t41.5 69t24.5 80.5
q12 60 12 101z" />
    <glyph glyph-name="p" unicode="p" horiz-adv-x="530" 
d="M153 37l-42 -209q-3 -18 21 -24l65 -11l4 -39h-274l3 39l47 11q20 5 25 24l125 559l-30 7l-64 -72l-21 22q23 49 59 87t72 38q21 0 58.5 -16.5t37.5 -29.5q0 -22 -46 -160h10q57 113 97.5 159.5t91.5 46.5q47 0 78.5 -40t31.5 -105q0 -73 -31.5 -147t-81.5 -124
q-68 -68 -138 -68q-60 0 -92 52h-6zM171 115q23 -32 52.5 -57.5t49.5 -25.5q16 0 32 16q34 34 60 109t26 135q0 38 -13 63.5t-35 25.5q-25 0 -57 -42t-93 -146z" />
    <glyph glyph-name="q" unicode="q" horiz-adv-x="503" 
d="M327 200q-8 -13 -24.5 -40.5t-23.5 -39t-20.5 -33t-20.5 -30.5t-19 -24t-20.5 -21.5t-19.5 -14t-21.5 -10t-22.5 -2.5q-50 0 -81.5 35.5t-31.5 99.5q0 73 34 150t86 129q69 69 139 69q66 0 87 -77h8l27 77h103l-60 -181l-97 -459q-3 -20 21 -24l51 -11l3 -39h-271l3 39
l58 11q20 5 25 24l53 225l45 147h-10zM354 329q-18 30 -50.5 53.5t-58.5 23.5q-17 0 -33 -16q-30 -30 -54.5 -104t-24.5 -134q0 -38 13.5 -58.5t37.5 -20.5t48.5 29.5t77.5 114.5q14 21 21 33z" />
    <glyph glyph-name="r" unicode="r" horiz-adv-x="451" 
d="M351 389l-4 2t-4 1q-8 4 -10 2q-14 -11 -69 -113t-79 -153l-24 -130l-121 -1l37 150l49 241l-29 6l-64 -72l-21 22q23 49 59 87t72 38q23 0 60 -11.5t37 -24.5q0 -22 -24 -108.5t-41 -137.5h14q13 40 50.5 116t54.5 93q24 42 44 58.5t55 16.5q32 0 54.5 -22t22.5 -60
q0 -33 -18.5 -54.5t-45.5 -21.5q-31 0 -47.5 22t-7.5 54z" />
    <glyph glyph-name="s" unicode="s" horiz-adv-x="383" 
d="M380 384q0 -29 -16 -46t-43 -17q-24 0 -38.5 15.5t-14.5 38.5q0 13 6 24q-37 20 -82 25q-13 -7 -27 -27t-14 -30q-1 -9 3.5 -19t14.5 -21.5t18.5 -20t22.5 -22t20 -19.5q38 -36 52.5 -50.5t30.5 -42t15 -52.5q-2 -60 -58 -97.5t-127 -37.5q-62 0 -105 21t-43 67
q0 28 16 45t45 17q23 0 37 -15t14 -39q0 -13 -6 -24q51 -24 95 -26q12 8 25.5 28.5t13.5 33.5q1 8 -2.5 17t-14 20.5t-17 18.5t-23.5 22t-22 20q-50 44 -75 77t-23 68q4 62 57 97.5t121 35.5q144 0 144 -85z" />
    <glyph glyph-name="t" unicode="t" horiz-adv-x="331" 
d="M155 592h108l-30 -144h126l3 -57h-139l-74 -328l28 -9l73 51l18 -21q-23 -40 -63 -70t-77 -30q-21 0 -56 14.5t-33 24.5l77 360l-82 8l3 34l93 37z" />
    <glyph glyph-name="u" unicode="u" horiz-adv-x="550" 
d="M25 344q20 47 57.5 86t73.5 39q20 0 56.5 -19t36.5 -32q0 -27 -53 -179q-32 -105 -32 -121q0 -15 14 -28t31 -13q24 0 58 52.5t94 174.5l35 153h121l-42 -150q-13 -65 -24 -117q-19 -99 -27 -129l27 -10l71 51l18 -20q-24 -41 -62 -69.5t-76 -28.5q-21 0 -55 14.5
t-34 27.5q0 44 57 221h-11q-82 -176 -124 -218q-44 -44 -96 -44q-38 0 -63 24.5t-25 59.5q0 46 45 185q9 30 25.5 80t17.5 54l-29 6l-64 -72z" />
    <glyph glyph-name="v" unicode="v" horiz-adv-x="474" 
d="M245 4l-125 -19l-9 403l-29 6l-64 -72l-20 22q20 47 57.5 86t72.5 39q22 0 59.5 -14.5t37.5 -26.5v-372h11l111 187q34 58 34 91q0 22 -20.5 40.5t-52.5 24.5q8 31 31.5 51t55.5 20q35 0 59.5 -22.5t24.5 -60.5q0 -41 -24.5 -85.5t-80.5 -118.5z" />
    <glyph glyph-name="w" unicode="w" horiz-adv-x="732" 
d="M380 291l-131 -287l-128 -19l-10 403l-29 6l-64 -72l-20 22q20 47 57.5 86t72.5 39q22 0 59.5 -14.5t37.5 -26.5l3 -372h9l141 318l-5 95l55 -10l54 -10l16 -393h10l95 187q34 66 34 91q0 22 -19 40.5t-49 24.5q8 31 31 51t53 20q34 0 57 -22.5t22 -60.5
q0 -28 -13.5 -61.5t-30.5 -60t-56 -82.5l-118 -179l-120 -19l-6 306h-8z" />
    <glyph glyph-name="x" unicode="x" horiz-adv-x="510" 
d="M532 400q-1 -32 -17.5 -52t-40.5 -20q-57 0 -51 66l-28 5l-92 -156l67 -177h21l56 62l18 -21q-58 -121 -120 -121q-15 0 -48 14t-35 22l-36 151h-8q-42 -90 -67 -130t-39.5 -49t-40.5 -9q-39 0 -64 20t-24 50q1 32 17 52t41 20q28 0 41.5 -17.5t10.5 -48.5l27 -6
q3 6 20.5 36.5t25.5 44.5q7 11 14 24t12 22.5t9.5 18t6.5 12.5l3 4l-68 172h-22l-55 -62l-18 21q58 121 119 121q17 0 49.5 -12t34.5 -24l36 -151h6q50 116 82 152t69 36q39 0 64 -19.5t24 -50.5z" />
    <glyph glyph-name="y" unicode="y" horiz-adv-x="476" 
d="M480 389q0 -71 -127 -235l-91 -123l-56 -112q-43 -87 -88 -128.5t-101 -41.5q-40 0 -69 23t-29 59q0 26 17 43.5t41 17.5q31 0 51 -22.5t19 -57.5l18 -1l126 167l-68 20l-11 390l-29 6l-64 -72l-20 22q20 47 57.5 86t72.5 39q22 0 59.5 -13.5t37.5 -27.5l-7 -379h13
l156 270v12q-56 23 -56 65q0 31 19.5 52.5t49.5 21.5q34 0 56.5 -22t22.5 -59z" />
    <glyph glyph-name="z" unicode="z" horiz-adv-x="427" 
d="M297 322q-60 20 -156 99l-16 -15q22 -28 22 -52q0 -23 -13.5 -36.5t-36.5 -15.5q-28 -2 -43 13.5t-15 39.5q0 41 38.5 75t96.5 38q36 0 62.5 -9.5t42.5 -27.5t24 -32.5t17 -37.5q2 0 4 1h3h5l27 107q31 2 53 -16t22 -46q0 -35 -26 -60t-74 -36l-202 -175q18 -7 45 -22.5
t42 -26t47.5 -34.5t33.5 -25l16 15q-24 29 -24 54q0 21 14.5 35t37.5 15q26 2 40.5 -14t14.5 -40q0 -42 -35 -76t-95 -40q-66 0 -102.5 32t-56.5 89h-8q-4 0 -5 -1l-28 -111q-32 -2 -54 16.5t-22 45.5q0 72 97 94z" />
    <glyph glyph-name="braceleft" unicode="{" horiz-adv-x="349" 
d="M322 -223q-107 5 -161 44.5t-54 106.5q0 39 27 100t27 88q0 38 -29 56t-95 24l-11 32l11 30q63 7 93.5 24.5t30.5 55.5q0 27 -27 88.5t-27 99.5q0 67 54 107t161 45v-38q-110 -10 -110 -87q0 -29 27 -91t27 -104q0 -48 -43.5 -83.5t-110.5 -41.5v-12q68 -8 111 -43
t43 -83q0 -41 -27 -102.5t-27 -91.5q0 -78 110 -88v-36z" />
    <glyph glyph-name="bar" unicode="|" horiz-adv-x="275" 
d="M113 690h49v-877h-49v877z" />
    <glyph glyph-name="braceright" unicode="}" horiz-adv-x="349" 
d="M311 196q-66 -6 -95.5 -24t-29.5 -56q0 -27 27 -88t27 -100q0 -67 -53.5 -106.5t-160.5 -44.5v36q110 10 110 88q0 30 -27 91.5t-27 102.5q0 48 42.5 83t111.5 43v12q-68 6 -111 41.5t-43 83.5q0 42 27 104t27 91q0 77 -110 87v38q107 -5 160.5 -44.5t53.5 -107.5
q0 -38 -27 -99.5t-27 -88.5q0 -38 30.5 -55.5t94.5 -24.5l11 -30z" />
    <glyph glyph-name="asciitilde" unicode="~" horiz-adv-x="384" 
d="M268 241q15 0 27 13.5t30 47.5h41q-17 -71 -45.5 -101t-73.5 -30q-33 0 -82.5 35.5t-64.5 35.5q-16 0 -25.5 -12.5t-27.5 -49.5h-43q17 71 45.5 101t73.5 30q33 0 81 -35t64 -35z" />
    <glyph glyph-name="exclamdown" unicode="&#xa1;" horiz-adv-x="294" 
d="M119 569q0 29 20 49.5t50 20.5q29 0 49.5 -20.5t20.5 -49.5q0 -28 -20.5 -48.5t-49.5 -20.5q-30 0 -50 20.5t-20 48.5zM157 422q2 6 13.5 6t11.5 -8l-4 -386q-2 -50 -62 -50h-4q-37 0 -55 16t-10 42z" />
    <glyph glyph-name="cent" unicode="&#xa2;" horiz-adv-x="410" 
d="M169 -165h-46l38 151q-60 6 -96.5 53t-36.5 117q0 74 31.5 144.5t91 119t132.5 49.5h2l43 167h47l-45 -174q37 -11 59.5 -35.5t22.5 -54.5q0 -31 -18.5 -49.5t-44.5 -18.5q-36 0 -52 27l-69 -270q28 5 122 64l17 -21q-78 -99 -159 -114zM271 401q-19 8 -43 8
q-8 0 -19 -10q-24 -24 -46 -97t-22 -138q0 -76 43 -98z" />
    <glyph glyph-name="sterling" unicode="&#xa3;" horiz-adv-x="527" 
d="M151 302q7 89 9 100q15 101 79 164t161 63q61 0 96 -23.5t35 -62.5q0 -29 -16.5 -46.5t-45.5 -17.5q-33 0 -49 28t-4 65q-18 16 -44 16q-33 0 -56 -33t-34 -116q-4 -28 -9 -77t-6 -60h143l3 -46h-153q-1 -7 -3.5 -22t-4.5 -23q-15 -66 -45 -105v-5q116 -32 147 -32
q46 0 68 22q19 21 40 65l25 -9q0 -80 -35.5 -125.5t-105.5 -45.5q-31 0 -60 11.5t-44.5 23.5t-37 33t-26.5 25q-68 -76 -177 -93l-7 47q74 15 106.5 54.5t41.5 113.5q3 20 5 65h-110l3 46h111z" />
    <glyph glyph-name="currency" unicode="&#xa4;" horiz-adv-x="519" 
d="M187 216q21 -157 151 -157q65 0 134 57l14 -20q-30 -50 -81 -80.5t-109 -30.5q-96 0 -153.5 64.5t-67.5 166.5h-65l3 47h60v6q0 31 7 71h-54l3 47h62q31 108 109 175.5t180 67.5q70 0 110.5 -25t41.5 -62q0 -29 -16 -47t-42 -18q-31 0 -49 27t-16 63q-21 15 -54 15
q-57 0 -99.5 -53t-60.5 -143h202l3 -47h-213q-4 -31 -4 -66v-11h198l3 -47h-197z" />
    <glyph glyph-name="yen" unicode="&#xa5;" horiz-adv-x="612" 
d="M651 585l-19 -6q-30 -9 -52.5 -27.5t-62.5 -72.5l-123 -174h148l4 -46h-173l-10 -79h179l4 -46h-187l-8 -60q-3 -19 20 -24l63 -11l3 -39h-304l3 39l65 11q23 5 26 24l8 60h-160l2 46h166l10 79h-179l3 46h162l-116 239q-13 23 -39 31l-34 10l-3 40h278l-3 -40l-35 -6
q-44 -8 0 -105l61 -150h6l105 154q36 52 39 74t-27 28l-22 5l-3 40h208z" />
    <glyph glyph-name="brokenbar" unicode="&#xa6;" horiz-adv-x="517" 
d="M551 586l-56 -11q-22 -4 -25 -24l-50 -362q-14 -101 -79 -152t-160 -51q-78 0 -134 40t-56 101q0 35 22 57t55 21q27 -1 45 -17.5t18 -42.5q0 -37 -28 -63q11 -21 35 -35t48 -14q93 0 112 145l48 373q2 19 -20 24l-67 11l-3 39h298z" />
    <glyph glyph-name="section" unicode="&#xa7;" horiz-adv-x="457" 
d="M437 281q0 -44 -27.5 -80t-69.5 -56q25 -28 25 -63q0 -55 -53 -100t-133 -45q-59 0 -98.5 22.5t-39.5 60.5q0 26 18 44t43 18q33 0 54.5 -26t21.5 -65q19 -10 43 -10q27 0 44 17.5t17 44.5q0 18 -18.5 38.5t-37.5 33.5t-56 36q-32 20 -48.5 31.5t-39.5 31t-33 40
t-10 44.5q2 45 29.5 80.5t69.5 55.5q-24 28 -24 63q0 57 51 98.5t128 41.5q56 0 94 -22t38 -59q0 -27 -18.5 -45.5t-42.5 -18.5q-30 0 -48.5 25.5t-17.5 65.5q-18 10 -39 10q-33 0 -47.5 -17t-14.5 -39q0 -9 3 -17.5t9.5 -17t13 -15t18.5 -15t20 -14t23.5 -15.5t23.5 -15
q33 -21 47.5 -32t38 -31.5t33.5 -40.5t10 -43zM359 227q0 29 -21.5 51.5t-62.5 49.5q-9 6 -30 19.5t-32.5 21.5t-27.5 20.5t-27 23.5q-39 -20 -39 -61q0 -15 6.5 -28.5t21 -27t26.5 -22t35 -23.5q10 -7 29.5 -19.5t31.5 -21t27 -20.5t26 -23q37 21 37 60z" />
    <glyph glyph-name="dieresis" unicode="&#xa8;" 
d="M420 606q0 -29 -17.5 -49t-47.5 -20t-47.5 20t-17.5 49t17.5 49.5t47.5 20.5t47.5 -20.5t17.5 -49.5zM206 606q0 -29 -17.5 -49t-47.5 -20t-48 20t-18 49t18 49.5t48 20.5t47.5 -20.5t17.5 -49.5z" />
    <glyph glyph-name="copyright" unicode="&#xa9;" horiz-adv-x="768" 
d="M733 311q0 -145 -102 -247t-247 -102t-247 102t-102 247q0 146 102 248.5t247 102.5t247 -102.5t102 -248.5zM692 311q0 129 -90 221t-218 92t-218 -92t-90 -221t90 -220t218 -91t218 91t90 220zM525 127l-38 8q-41 -18 -93 -18q-99 0 -150 54.5t-51 138.5q0 85 57.5 140
t142.5 55q46 0 87 -15l52 14v-138h-42l-27 85q-25 19 -74 19q-52 0 -83 -38.5t-31 -109.5q0 -73 34 -122t93 -49q35 0 55 14l35 89h45z" />
    <glyph glyph-name="ordfeminine" unicode="&#xaa;" horiz-adv-x="385" 
d="M308 582l15 56l73 -4l-38 -148l-31 -141l20 -5l58 52l11 -15q-21 -35 -53 -63.5t-58 -28.5q-14 0 -34.5 17t-20.5 28q0 8 6.5 26.5t19 53t22.5 64.5h-7q-58 -104 -91 -146.5t-68 -42.5q-34 0 -54.5 26.5t-20.5 74.5q0 53 22.5 109t59.5 93q47 50 105 50q26 0 38.5 -14.5
t19.5 -41.5h6zM293 534q-51 53 -83 53q-13 0 -24 -11q-17 -17 -32 -67.5t-15 -96.5q0 -58 39 -58q13 0 35.5 31.5t64.5 98.5z" />
    <glyph glyph-name="guillemotleft" unicode="&#xab;" horiz-adv-x="500" 
d="M437 41l-213 154v56l259 158l9 -21l-182 -167l141 -159zM228 51l-210 144v56l253 148l8 -21l-163 -157l126 -149z" />
    <glyph glyph-name="logicalnot" unicode="&#xac;" horiz-adv-x="528" 
d="M376 391l27 77h103l-60 -181l-53 -224l27 -9l74 51l17 -21q-23 -40 -63 -70t-77 -30q-21 0 -55.5 14t-34.5 27q0 9 8.5 36t25 73t22.5 66h-10q-8 -13 -24.5 -40.5t-23.5 -39t-20.5 -33t-20.5 -30.5t-19 -24t-20.5 -21.5t-19.5 -14t-21.5 -10t-22.5 -2.5q-50 0 -81.5 35.5
t-31.5 99.5q0 73 34 150t86 129q69 69 139 69q66 0 87 -77h8zM354 329q-18 30 -50.5 53.5t-58.5 23.5q-17 0 -33 -16q-30 -30 -54.5 -104t-24.5 -134q0 -38 13.5 -58.5t37.5 -20.5t48.5 29.5t77.5 114.5q14 21 21 33z" />
    <glyph glyph-name="registered" unicode="&#xae;" horiz-adv-x="768" 
d="M733 313q0 -146 -101.5 -247.5t-247.5 -101.5q-145 0 -247 102t-102 247t102 247.5t247 102.5q146 0 247.5 -102.5t101.5 -247.5zM692 313q0 128 -90 220t-218 92t-218 -92t-90 -220q0 -129 90 -220t218 -91t218 91t90 220zM462 129l-22 41l-69 115l-31 2v-104
q0 -9 14 -14l27 -6l2 -34h-167l3 34l28 6q14 5 14 14v261q0 11 -14 14l-28 7l-3 34h178q70 0 105.5 -27t35.5 -67q0 -77 -89 -103l75 -113q11 -14 29 -21l21 -5l3 -34h-112zM452 391q0 37 -23.5 56t-64.5 18l-24 -1v-142l35 -4q77 5 77 73z" />
    <glyph glyph-name="macron" unicode="&#xaf;" 
d="M83 546l12 58h284l1 -58h-297z" />
    <glyph glyph-name="degree" unicode="&#xb0;" horiz-adv-x="410" 
d="M410 501q0 -78 -53.5 -132.5t-130.5 -54.5q-66 0 -111 41t-45 108q0 76 53.5 130.5t128.5 54.5q67 0 112.5 -40t45.5 -107zM360 491q0 50 -31.5 81t-81.5 31q-55 0 -92 -41t-37 -97q0 -49 32 -79.5t79 -30.5q54 0 92.5 40t38.5 96z" />
    <glyph glyph-name="plusminus" unicode="&#xb1;" horiz-adv-x="768" 
d="M733 311q0 -145 -102 -246.5t-247 -101.5t-247 101.5t-102 246.5q0 146 102 248.5t247 102.5t247 -102.5t102 -248.5zM692 311q0 129 -90 221t-218 92t-218 -92t-90 -221t90 -220t218 -91t218 91t90 220zM554 393q0 -56 -42.5 -91.5t-104.5 -35.5q-23 0 -43 3v-88
q0 -10 14 -13l36 -7l2 -34h-175l2 34l29 7q13 3 13 13v262q0 10 -13 13l-29 8l-2 33h162q75 0 113 -27.5t38 -76.5zM474 385q0 36 -23 57t-59 21h-28v-160q17 -4 39 -4q33 0 52 22.5t19 63.5z" />
    <glyph glyph-name="acute" unicode="&#xb4;" horiz-adv-x="399" 
d="M208 515h-45l119 182h127z" />
    <glyph glyph-name="mu" unicode="&#xb5;" horiz-adv-x="466" 
d="M360 390l-1 -10q51 -40 51 -99q0 -69 -57 -113.5t-132 -44.5q-37 0 -70 10q-15 -4 -25 -16.5t-10 -24.5q0 -17 19 -27.5t63 -25.5l46 -13q77 -23 116 -53.5t39 -83.5q0 -61 -72 -106t-197 -45q-89 0 -144 31.5t-55 86.5q0 42 39.5 72t98.5 46v8q-43 27 -43 66q0 67 91 95
v8q-71 45 -71 125q0 83 62 138t150 55q59 0 119 -20l126 2l-25 -90zM312 356q0 21 -24 39.5t-50 18.5q-21 0 -32 -11q-25 -25 -39.5 -73t-14.5 -91q2 -44 22 -64q13 -13 31 -13q31 0 55 26q26 26 39 74.5t13 93.5zM309 -149q0 23 -25 40.5t-84 36.5q-73 23 -101 36
q-73 -35 -73 -89q0 -39 42.5 -63.5t113.5 -24.5q54 0 90.5 18.5t36.5 45.5z" />
    <glyph glyph-name="paragraph" unicode="&#xb6;" horiz-adv-x="489" 
d="M322 -32l38 280q-38 -5 -62 -5q-106 0 -172 50t-66 130q0 202 272 202h140l-86 -657h-64z" />
    <glyph glyph-name="periodcentered" unicode="&#xb7;" horiz-adv-x="232" 
d="M185 238q0 -31 -22.5 -54.5t-54.5 -23.5q-33 0 -55.5 23t-22.5 55t22.5 54.5t55.5 22.5t55 -22.5t22 -54.5z" />
    <glyph glyph-name="cedilla" unicode="&#xb8;" 
d="M17 -248q81 10 124.5 32t43.5 53q0 48 -77 48q-38 0 -70 -7l3 24l130 119h50l-85 -75q60 -2 93.5 -24.5t33.5 -61.5q0 -56 -66 -92.5t-174 -42.5z" />
    <glyph glyph-name="ordmasculine" unicode="&#xba;" horiz-adv-x="351" 
d="M367 490q0 -80 -50.5 -142.5t-125.5 -62.5q-62 0 -96 40.5t-34 107.5q0 80 51 142.5t126 62.5q62 0 95.5 -40t33.5 -108zM287 525q0 34 -12.5 55.5t-36.5 21.5q-29 0 -53 -40.5t-34 -88.5q-9 -37 -9 -71q0 -35 12.5 -57.5t35.5 -22.5q31 0 54.5 40.5t33.5 90.5q9 37 9 72
z" />
    <glyph glyph-name="guillemotright" unicode="&#xbb;" horiz-adv-x="500" 
d="M215 47l-9 21l164 157l-126 149l15 21l208 -144v-56zM3 37l-9 21l181 167l-140 159l13 21l214 -154v-56z" />
    <glyph glyph-name="onequarter" unicode="&#xbc;" horiz-adv-x="558" 
d="M407 528q-29 0 -48 28t-26 69l-67 -13q-7 -20 -36 -164h154q13 52 23 80zM468 628q63 66 151 66q48 0 77 -24.5t29 -63.5q0 -28 -17.5 -48t-44.5 -20q-31 0 -51 27.5t-24 69.5l-52 -9q-6 -13 -12 -36t-9.5 -41.5t-10 -52t-9.5 -48.5h122l4 -57h-138l-53 -268
q-45 -217 -112 -287q-51 -52 -121 -52q-42 0 -70 22t-28 57q0 27 16.5 44.5t41.5 17.5q31 0 50.5 -24t22.5 -59l49 17q19 45 39 168l54 364h-154l-58 -298q-45 -217 -112 -287q-52 -52 -125 -52q-42 0 -70.5 22.5t-28.5 57.5q0 27 16.5 44t41.5 17q31 0 51 -23.5t23 -58.5
l52 16q20 52 39 169l60 386l-87 7l3 34l96 31q21 103 78 160q66 66 157 66q39 0 67 -17t40 -44z" />
    <glyph glyph-name="onehalf" unicode="&#xbd;" horiz-adv-x="803" 
d="M472 632q71 66 179 66q57 0 90.5 -26.5t33.5 -68.5q0 -27 -18 -46.5t-45 -19.5q-58 0 -79 97l-95 -13q-22 -49 -43 -173h118q31 21 55 21q18 0 54 -25t32 -37l-91 -336l18 -9l82 58l17 -22q-25 -44 -65.5 -78.5t-77.5 -34.5q-19 0 -52 25t-31 36l90 339l-8 6h-153
l-53 -268q-45 -217 -112 -287q-51 -52 -121 -52q-42 0 -70 22t-28 57q0 27 16.5 44.5t41.5 17.5q31 0 50.5 -24t22.5 -59l49 17q19 45 39 168l54 364h-154l-58 -298q-45 -217 -112 -287q-52 -52 -125 -52q-42 0 -70.5 22.5t-28.5 57.5q0 27 16.5 44t41.5 17q31 0 51 -23.5
t23 -58.5l52 16q20 52 39 169l60 386l-87 7l3 34l96 31q18 108 80 168q34 34 71 50.5t92 16.5q40 0 68.5 -16.5t41.5 -42.5zM407 536q-25 5 -42.5 32t-23.5 63l-73 -12q-20 -63 -38 -171h154q13 65 23 88z" />
    <glyph glyph-name="threequarters" unicode="&#xbe;" horiz-adv-x="809" 
d="M671 551q-25 21 -38 83l-95 -13q-22 -49 -43 -173h154zM407 536q-25 5 -42.5 32t-23.5 63l-73 -12q-20 -63 -38 -171h154q13 65 23 88zM472 632q71 66 179 66q47 0 80 -20l77 19l-135 -626l19 -9l81 58l18 -22q-29 -45 -68 -79t-75 -34q-18 0 -51 25t-31 36l71 345h-154
l-53 -268q-45 -217 -112 -287q-51 -52 -121 -52q-42 0 -70 22t-28 57q0 27 16.5 44.5t41.5 17.5q31 0 50.5 -24t22.5 -59l49 17q19 45 39 168l54 364h-154l-58 -298q-45 -217 -112 -287q-52 -52 -125 -52q-42 0 -70.5 22.5t-28.5 57.5q0 27 16.5 44t41.5 17q31 0 51 -23.5
t23 -58.5l52 16q20 52 39 169l60 386l-87 7l3 34l96 31q18 108 80 168q34 34 71 50.5t92 16.5q40 0 68.5 -16.5t41.5 -42.5z" />
    <glyph glyph-name="questiondown" unicode="&#xbf;" horiz-adv-x="388" 
d="M12 166q0 36 12 63t34 43.5t42.5 26t49.5 18.5q63 20 76 32q13 11 13 28q0 32 -33 63l49 -1q23 -16 40.5 -43.5t17.5 -55.5t-12 -49t-35.5 -35t-44 -22t-51.5 -17q-23 -6 -35.5 -10t-27.5 -10t-21.5 -13t-6.5 -16q0 -29 43 -51t102 -22q30 0 64 6q15 -17 15 -39
q0 -33 -26 -53.5t-73 -20.5q-78 0 -135 52t-57 126zM204 572q0 30 19.5 50t49.5 20q29 0 49.5 -20.5t20.5 -49.5q0 -28 -20.5 -48.5t-49.5 -20.5t-49 20.5t-20 48.5z" />
    <glyph glyph-name="Agrave" unicode="&#xc0;" horiz-adv-x="620" 
d="M304 0l3 41l39 6q26 4 30.5 20t-4.5 57l-14 84h-188l-17 -46q-43 -102 11 -113l36 -8l3 -41h-237l3 41l28 9q32 9 50 30.5t58 107.5l174 384v38l133 30l108 -549q4 -19 11.5 -27.5t26.5 -13.5l38 -9l3 -41h-295zM309 514h-8l-111 -257h160zM355 682l-151 182h127l70 -182
h-46z" />
    <glyph glyph-name="Aacute" unicode="&#xc1;" horiz-adv-x="620" 
d="M304 0l3 41l39 6q26 4 30.5 20t-4.5 57l-14 84h-188l-17 -46q-43 -102 11 -113l36 -8l3 -41h-237l3 41l28 9q32 9 50 30.5t58 107.5l174 384v38l133 30l108 -549q4 -19 11.5 -27.5t26.5 -13.5l38 -9l3 -41h-295zM309 514h-8l-111 -257h160zM343 682h-45l119 182h127z" />
    <glyph glyph-name="Acircumflex" unicode="&#xc2;" horiz-adv-x="620" 
d="M304 0l3 41l39 6q26 4 30.5 20t-4.5 57l-14 84h-188l-17 -46q-43 -102 11 -113l36 -8l3 -41h-237l3 41l28 9q32 9 50 30.5t58 107.5l174 384v38l133 30l108 -549q4 -19 11.5 -27.5t26.5 -13.5l38 -9l3 -41h-295zM309 514h-8l-111 -257h160zM450 682l-86 120h-2l-118 -120
h-46l114 182h118l66 -182h-46z" />
    <glyph glyph-name="Atilde" unicode="&#xc3;" horiz-adv-x="620" 
d="M304 0l3 41l39 6q26 4 30.5 20t-4.5 57l-14 84h-188l-17 -46q-43 -102 11 -113l36 -8l3 -41h-237l3 41l28 9q32 9 50 30.5t58 107.5l174 384v38l133 30l108 -549q4 -19 11.5 -27.5t26.5 -13.5l38 -9l3 -41h-295zM309 514h-8l-111 -257h160zM544 825q-17 -71 -46.5 -103
t-74.5 -32q-32 0 -81 35.5t-65 35.5t-25.5 -12.5t-27.5 -49.5h-43q17 71 46 103t74 32q33 0 80.5 -35t63.5 -35q15 0 27 13.5t30 47.5h42z" />
    <glyph glyph-name="Adieresis" unicode="&#xc4;" horiz-adv-x="620" 
d="M304 0l3 41l39 6q26 4 30.5 20t-4.5 57l-14 84h-188l-17 -46q-43 -102 11 -113l36 -8l3 -41h-237l3 41l28 9q32 9 50 30.5t58 107.5l174 384v38l133 30l108 -549q4 -19 11.5 -27.5t26.5 -13.5l38 -9l3 -41h-295zM309 514h-8l-111 -257h160zM530 773q0 -29 -17.5 -49
t-47.5 -20t-47.5 20t-17.5 49t17.5 49.5t47.5 20.5t47.5 -20.5t17.5 -49.5zM316 773q0 -29 -17.5 -49t-47.5 -20t-48 20t-18 49t18 49.5t48 20.5t47.5 -20.5t17.5 -49.5z" />
    <glyph glyph-name="Aring" unicode="&#xc5;" horiz-adv-x="620" 
d="M311 514h-10l-111 -260h159zM427 692q0 28 -17.5 48t-46.5 20t-46.5 -20t-17.5 -48t17.5 -47.5t46.5 -19.5t46.5 19.5t17.5 47.5zM298 615q-34 31 -34 77q2 43 28.5 71.5t70.5 28.5q45 0 71.5 -28.5t26.5 -71.5q0 -57 -42 -83l101 -518q3 -18 11 -27t27 -14l38 -9l3 -41
h-295l3 41l39 6q26 4 30.5 20t-4.5 57l-14 84h-188l-17 -46q-43 -102 11 -113l36 -8l3 -41h-237l3 41l28 9q31 9 49 31t59 107z" />
    <glyph glyph-name="AE" unicode="&#xc6;" horiz-adv-x="875" 
d="M789 0h-523l6 39l51 11q23 5 26 24l20 148h-189l-31 -50q-42 -61 -42 -93q0 -25 30 -30l35 -8l3 -41h-236l3 41l28 9q31 10 54 33t69 95l219 345q27 45 -17 53l-47 10l-1 39h627l-27 -206h-69l-11 83q-6 53 -38 65.5t-152 12.5h-31l-34 -242h11q45 0 64.5 6t30.5 26
l34 68h51l-55 -242h-51l1 64q0 19 -16 26t-69 7h-7l-33 -248h35q122 0 159.5 13t61.5 65l34 74h72zM417 583h-7l-201 -315h166z" />
    <glyph glyph-name="Ccedilla" unicode="&#xc7;" horiz-adv-x="650" 
d="M307 -15q-127 10 -192.5 84.5t-65.5 196.5q0 72 30 142t84 124q107 107 253 107q39 0 84 -8t67 -17l86 23l-30 -223h-69l-23 144q-45 32 -105 32q-96 0 -163.5 -98t-67.5 -239q0 -121 62 -181q39 -39 103 -39q50 0 96 24l70 149h76l-47 -206l-60 12q-58 -23 -141 -28
l-43 -38q60 -2 93.5 -24.5t33.5 -61.5q0 -56 -66 -92.5t-174 -42.5l-6 27q81 10 124.5 32t43.5 53q0 48 -77 48q-38 0 -70 -7l3 24z" />
    <glyph glyph-name="Egrave" unicode="&#xc8;" horiz-adv-x="627" 
d="M539 0h-532l4 40l49 11q22 5 26 24l65 475q5 19 -20 24l-46 11l-2 40h541l-27 -206h-69l-11 83q-6 53 -38 65.5t-152 12.5h-39l-34 -242h19q45 0 64.5 6t30.5 26l34 68h51l-55 -242h-51l1 64q0 19 -16 26t-69 7h-15l-33 -248h43q122 0 159.5 13t61.5 65l34 74h72z
M374 682l-151 182h127l70 -182h-46z" />
    <glyph glyph-name="Eacute" unicode="&#xc9;" horiz-adv-x="627" 
d="M539 0h-532l4 40l49 11q22 5 26 24l65 475q5 19 -20 24l-46 11l-2 40h541l-27 -206h-69l-11 83q-6 53 -38 65.5t-152 12.5h-39l-34 -242h19q45 0 64.5 6t30.5 26l34 68h51l-55 -242h-51l1 64q0 19 -16 26t-69 7h-15l-33 -248h43q122 0 159.5 13t61.5 65l34 74h72z
M347 682h-45l119 182h127z" />
    <glyph glyph-name="Ecircumflex" unicode="&#xca;" horiz-adv-x="627" 
d="M539 0h-532l4 40l49 11q22 5 26 24l65 475q5 19 -20 24l-46 11l-2 40h541l-27 -206h-69l-11 83q-6 53 -38 65.5t-152 12.5h-39l-34 -242h19q45 0 64.5 6t30.5 26l34 68h51l-55 -242h-51l1 64q0 19 -16 26t-69 7h-15l-33 -248h43q122 0 159.5 13t61.5 65l34 74h72z
M459 682l-86 120h-2l-118 -120h-46l114 182h118l66 -182h-46z" />
    <glyph glyph-name="Edieresis" unicode="&#xcb;" horiz-adv-x="627" 
d="M539 0h-532l4 40l49 11q22 5 26 24l65 475q5 19 -20 24l-46 11l-2 40h541l-27 -206h-69l-11 83q-6 53 -38 65.5t-152 12.5h-39l-34 -242h19q45 0 64.5 6t30.5 26l34 68h51l-55 -242h-51l1 64q0 19 -16 26t-69 7h-15l-33 -248h43q122 0 159.5 13t61.5 65l34 74h72z
M544 773q0 -29 -17.5 -49t-47.5 -20t-47.5 20t-17.5 49t17.5 49.5t47.5 20.5t47.5 -20.5t17.5 -49.5zM330 773q0 -29 -17.5 -49t-47.5 -20t-48 20t-18 49t18 49.5t48 20.5t47.5 -20.5t17.5 -49.5z" />
    <glyph glyph-name="Igrave" unicode="&#xcc;" horiz-adv-x="373" 
d="M9 0l3 40l59 11q22 5 26 24l65 475q5 20 -20 24l-56 11l-3 40h300l-3 -40l-60 -11q-23 -5 -26 -24l-64 -475q-3 -18 20 -24l56 -11l4 -40h-301zM232 682l-151 182h127l70 -182h-46z" />
    <glyph glyph-name="Iacute" unicode="&#xcd;" horiz-adv-x="373" 
d="M9 0l3 40l59 11q22 5 26 24l65 475q5 20 -20 24l-56 11l-3 40h300l-3 -40l-60 -11q-23 -5 -26 -24l-64 -475q-3 -18 20 -24l56 -11l4 -40h-301zM260 682h-45l119 182h127z" />
    <glyph glyph-name="Icircumflex" unicode="&#xce;" horiz-adv-x="373" 
d="M9 0l3 40l59 11q22 5 26 24l65 475q5 20 -20 24l-56 11l-3 40h300l-3 -40l-60 -11q-23 -5 -26 -24l-64 -475q-3 -18 20 -24l56 -11l4 -40h-301zM340 682l-86 120h-2l-118 -120h-46l114 182h118l66 -182h-46z" />
    <glyph glyph-name="Idieresis" unicode="&#xcf;" horiz-adv-x="373" 
d="M9 0l3 40l59 11q22 5 26 24l65 475q5 20 -20 24l-56 11l-3 40h300l-3 -40l-60 -11q-23 -5 -26 -24l-64 -475q-3 -18 20 -24l56 -11l4 -40h-301zM418 773q0 -29 -17.5 -49t-47.5 -20t-47.5 20t-17.5 49t17.5 49.5t47.5 20.5t47.5 -20.5t17.5 -49.5zM204 773
q0 -29 -17.5 -49t-47.5 -20t-48 20t-18 49t18 49.5t48 20.5t47.5 -20.5t17.5 -49.5z" />
    <glyph glyph-name="Eth" unicode="&#xd0;" horiz-adv-x="686" 
d="M365 339l3 -46h-120q-6 -58 -15 -116q-1 -4 -16 -117l67 -15q103 4 169.5 85t66.5 220q0 107 -47 168t-146 61h-40l-32 -240h110zM44 293l3 46h74l29 211q5 19 -20 24l-45 11l-3 40q51 1 137 1h129q149 0 232.5 -76t83.5 -201q0 -141 -102 -243q-48 -49 -126 -77.5
t-172 -28.5h-257l4 40l49 11q22 5 26 24l29 218h-71z" />
    <glyph glyph-name="Ntilde" unicode="&#xd1;" horiz-adv-x="715" 
d="M738 585l-48 -10q-26 -6 -39.5 -43.5t-28.5 -155.5l-53 -384h-97l-262 509h-7l-34 -252q-17 -122 -14.5 -158.5t25.5 -40.5l52 -10l3 -40h-239l3 40l48 10q25 6 38.5 44t28.5 155l37 268q3 26 -1.5 39t-22.5 18l-43 11l-2 40h209l238 -465h8l29 216q17 124 15 159.5
t-24 39.5l-54 10l-3 40h241zM587 825q-17 -71 -46.5 -103t-74.5 -32q-32 0 -81 35.5t-65 35.5t-25.5 -12.5t-27.5 -49.5h-43q17 71 46 103t74 32q33 0 80.5 -35t63.5 -35q15 0 27 13.5t30 47.5h42z" />
    <glyph glyph-name="Ograve" unicode="&#xd2;" horiz-adv-x="715" 
d="M686 348q0 -154 -111 -268q-93 -95 -233 -95q-128 0 -211 81.5t-83 208.5q0 148 95 252q103 111 250 111q129 0 211 -81t82 -209zM543 378q0 117 -52 173q-41 38 -101 38q-53 0 -93.5 -37t-62.5 -93.5t-32.5 -111.5t-10.5 -103q0 -118 53 -170q39 -39 100 -39
q53 0 93.5 37t62.5 93t32.5 111t10.5 102zM398 682l-151 182h127l70 -182h-46z" />
    <glyph glyph-name="Oacute" unicode="&#xd3;" horiz-adv-x="715" 
d="M686 348q0 -154 -111 -268q-93 -95 -233 -95q-128 0 -211 81.5t-83 208.5q0 148 95 252q103 111 250 111q129 0 211 -81t82 -209zM543 378q0 117 -52 173q-41 38 -101 38q-53 0 -93.5 -37t-62.5 -93.5t-32.5 -111.5t-10.5 -103q0 -118 53 -170q39 -39 100 -39
q53 0 93.5 37t62.5 93t32.5 111t10.5 102zM396 682h-45l119 182h127z" />
    <glyph glyph-name="Ocircumflex" unicode="&#xd4;" horiz-adv-x="715" 
d="M686 348q0 -154 -111 -268q-93 -95 -233 -95q-128 0 -211 81.5t-83 208.5q0 148 95 252q103 111 250 111q129 0 211 -81t82 -209zM543 378q0 117 -52 173q-41 38 -101 38q-53 0 -93.5 -37t-62.5 -93.5t-32.5 -111.5t-10.5 -103q0 -118 53 -170q39 -39 100 -39
q53 0 93.5 37t62.5 93t32.5 111t10.5 102zM517 682l-86 120h-2l-118 -120h-46l114 182h118l66 -182h-46z" />
    <glyph glyph-name="Otilde" unicode="&#xd5;" horiz-adv-x="715" 
d="M686 348q0 -154 -111 -268q-93 -95 -233 -95q-128 0 -211 81.5t-83 208.5q0 148 95 252q103 111 250 111q129 0 211 -81t82 -209zM543 378q0 117 -52 173q-41 38 -101 38q-53 0 -93.5 -37t-62.5 -93.5t-32.5 -111.5t-10.5 -103q0 -118 53 -170q39 -39 100 -39
q53 0 93.5 37t62.5 93t32.5 111t10.5 102zM596 825q-17 -71 -46.5 -103t-74.5 -32q-32 0 -81 35.5t-65 35.5t-25.5 -12.5t-27.5 -49.5h-43q17 71 46 103t74 32q33 0 80.5 -35t63.5 -35q15 0 27 13.5t30 47.5h42z" />
    <glyph glyph-name="Odieresis" unicode="&#xd6;" horiz-adv-x="715" 
d="M686 348q0 -154 -111 -268q-93 -95 -233 -95q-128 0 -211 81.5t-83 208.5q0 148 95 252q103 111 250 111q129 0 211 -81t82 -209zM543 378q0 117 -52 173q-41 38 -101 38q-53 0 -93.5 -37t-62.5 -93.5t-32.5 -111.5t-10.5 -103q0 -118 53 -170q39 -39 100 -39
q53 0 93.5 37t62.5 93t32.5 111t10.5 102zM587 773q0 -29 -17.5 -49t-47.5 -20t-47.5 20t-17.5 49t17.5 49.5t47.5 20.5t47.5 -20.5t17.5 -49.5zM373 773q0 -29 -17.5 -49t-47.5 -20t-48 20t-18 49t18 49.5t48 20.5t47.5 -20.5t17.5 -49.5z" />
    <glyph glyph-name="multiply" unicode="&#xd7;" horiz-adv-x="486" 
d="M413 103l-168 169l-169 -169l-37 37l169 169l-169 168l37 37l169 -169l169 170l37 -37l-170 -169l169 -169z" />
    <glyph glyph-name="Oslash" unicode="&#xd8;" horiz-adv-x="715" 
d="M255 68q43 -36 96 -36q52 0 93 37t63.5 93.5t33.5 112t11 103.5q0 87 -34 142zM492 555q-34 37 -96 37q-53 0 -94 -37.5t-63 -94t-33 -112.5t-11 -104q0 -89 34 -142zM186 28q-62 39 -97 103t-34 144q0 149 94 252q103 111 250 111q69 0 126 -25l44 75h47
q-18 -32 -27 -47q-28 -43 -28 -47q62 -37 97 -101.5t34 -144.5q0 -154 -111 -268q-93 -95 -233 -95q-72 0 -126 25l-49 -84h-46z" />
    <glyph glyph-name="Ugrave" unicode="&#xd9;" horiz-adv-x="708" 
d="M737 585l-48 -10q-25 -6 -37.5 -42t-30.5 -157l-24 -170q-17 -113 -87 -170t-176 -57q-108 0 -173 52t-65 151q0 30 3 55l43 313q5 19 -20 24l-45 11l-3 40h280l-3 -40l-50 -11q-23 -6 -26 -24l-43 -313q-5 -28 -5 -60q0 -62 39 -97.5t106 -35.5q72 0 115 42t57 137
l22 153q17 123 14.5 159t-25.5 40l-52 10l-3 40h240zM425 682l-151 182h127l70 -182h-46z" />
    <glyph glyph-name="Uacute" unicode="&#xda;" horiz-adv-x="708" 
d="M737 585l-48 -10q-25 -6 -37.5 -42t-30.5 -157l-24 -170q-17 -113 -87 -170t-176 -57q-108 0 -173 52t-65 151q0 30 3 55l43 313q5 19 -20 24l-45 11l-3 40h280l-3 -40l-50 -11q-23 -6 -26 -24l-43 -313q-5 -28 -5 -60q0 -62 39 -97.5t106 -35.5q72 0 115 42t57 137
l22 153q17 123 14.5 159t-25.5 40l-52 10l-3 40h240zM428 682h-45l119 182h127z" />
    <glyph glyph-name="Ucircumflex" unicode="&#xdb;" horiz-adv-x="708" 
d="M737 585l-48 -10q-25 -6 -37.5 -42t-30.5 -157l-24 -170q-17 -113 -87 -170t-176 -57q-108 0 -173 52t-65 151q0 30 3 55l43 313q5 19 -20 24l-45 11l-3 40h280l-3 -40l-50 -11q-23 -6 -26 -24l-43 -313q-5 -28 -5 -60q0 -62 39 -97.5t106 -35.5q72 0 115 42t57 137
l22 153q17 123 14.5 159t-25.5 40l-52 10l-3 40h240zM528 682l-86 120h-2l-118 -120h-46l114 182h118l66 -182h-46z" />
    <glyph glyph-name="Udieresis" unicode="&#xdc;" horiz-adv-x="708" 
d="M737 585l-48 -10q-25 -6 -37.5 -42t-30.5 -157l-24 -170q-17 -113 -87 -170t-176 -57q-108 0 -173 52t-65 151q0 30 3 55l43 313q5 19 -20 24l-45 11l-3 40h280l-3 -40l-50 -11q-23 -6 -26 -24l-43 -313q-5 -28 -5 -60q0 -62 39 -97.5t106 -35.5q72 0 115 42t57 137
l22 153q17 123 14.5 159t-25.5 40l-52 10l-3 40h240zM584 773q0 -29 -17.5 -49t-47.5 -20t-47.5 20t-17.5 49t17.5 49.5t47.5 20.5t47.5 -20.5t17.5 -49.5zM370 773q0 -29 -17.5 -49t-47.5 -20t-48 20t-18 49t18 49.5t48 20.5t47.5 -20.5t17.5 -49.5z" />
    <glyph glyph-name="Yacute" unicode="&#xdd;" horiz-adv-x="597" 
d="M655 584l-24 -7q-29 -7 -53 -27t-64 -78l-144 -209l-24 -188q-3 -19 20 -24l59 -11l-1 -40h-307l6 40l64 11q21 4 26 24l24 182l-122 265q-13 25 -24 36t-29 16l-30 10l-3 41h287l-3 -41l-40 -6q-26 -4 -26.5 -27t20.5 -71l71 -174h8l115 173q32 47 33 69.5t-30 28.5
l-36 7l-3 41h233zM372 682h-45l119 182h127z" />
    <glyph glyph-name="Thorn" unicode="&#xde;" horiz-adv-x="588" 
d="M568 327q0 -93 -78.5 -147.5t-195.5 -54.5q-39 0 -67 4l-8 -54q-3 -21 20 -24l62 -11l2 -40h-296l4 40l49 11q22 5 26 24l65 475q5 19 -20 24l-45 11l-3 40h280l-3 -40l-50 -11q-23 -6 -26 -24l-6 -47h54q107 0 171.5 -47t64.5 -129zM432 322q0 62 -37.5 99.5t-93.5 37.5
h-29l-39 -286q24 -6 48 -6q68 0 109.5 41t41.5 114z" />
    <glyph glyph-name="germandbls" unicode="&#xdf;" horiz-adv-x="615" 
d="M563 124q-2 -64 -59.5 -101.5t-128.5 -37.5q-61 0 -102 21t-41 67q0 29 16 45.5t45 16.5q23 0 37 -15t14 -39q0 -13 -6 -24q40 -20 101 -25q10 9 20 28t11 33q0 5 -1.5 10t-4 10t-5.5 10t-8.5 11t-9.5 10.5t-11.5 11.5t-12 11l-13.5 12t-13 12q-5 4 -17.5 16t-17 16.5
l-15 15t-14.5 15.5t-11.5 14.5t-10.5 16t-6.5 15t-4.5 17t-1 17.5q4 65 55.5 100t119.5 35q144 0 144 -85q0 -29 -16 -45.5t-43 -16.5q-24 0 -38.5 15.5t-14.5 38.5q0 12 6 23q-33 19 -88 25q-12 -10 -21.5 -27.5t-10.5 -29.5q-1 -9 3 -18.5t14 -21t18 -20t22.5 -22
t21.5 -20.5q5 -5 17.5 -16.5t17.5 -16.5t15 -15.5t14.5 -15.5t11.5 -14.5t10 -15.5t6.5 -14.5t4.5 -16.5t1 -16zM475 603q0 -27 -17.5 -46.5t-43.5 -19.5q-31 0 -50.5 27t-25.5 69l-63 -11q-15 -42 -40 -174l-70 -355q-45 -219 -112 -287q-51 -52 -125 -52q-42 0 -70.5 22.5
t-28.5 57.5q0 27 16.5 44t41.5 17q31 0 50.5 -23.5t23.5 -58.5l53 16q16 37 38 168l59 387l-85 7l3 34l96 31q23 112 81 170q67 67 158 67q50 0 80.5 -25.5t30.5 -64.5z" />
    <glyph glyph-name="agrave" unicode="&#xe0;" horiz-adv-x="528" 
d="M324 515l-151 182h127l70 -182h-46zM376 391l27 77h103l-60 -181l-53 -224l27 -9l74 51l17 -21q-23 -40 -63 -70t-77 -30q-21 0 -55.5 14t-34.5 27q0 9 8.5 36t25 73t22.5 66h-10q-8 -13 -24.5 -40.5t-23.5 -39t-20.5 -33t-20.5 -30.5t-19 -24t-20.5 -21.5t-19.5 -14
t-21.5 -10t-22.5 -2.5q-50 0 -81.5 35.5t-31.5 99.5q0 73 34 150t86 129q69 69 139 69q66 0 87 -77h8zM354 329q-18 30 -50.5 53.5t-58.5 23.5q-17 0 -33 -16q-30 -30 -54.5 -104t-24.5 -134q0 -38 13.5 -58.5t37.5 -20.5t48.5 29.5t77.5 114.5q14 21 21 33z" />
    <glyph glyph-name="aacute" unicode="&#xe1;" horiz-adv-x="528" 
d="M376 391l27 77h103l-60 -181l-53 -224l27 -9l74 51l17 -21q-23 -40 -63 -70t-77 -30q-21 0 -55.5 14t-34.5 27q0 9 8.5 36t25 73t22.5 66h-10q-8 -13 -24.5 -40.5t-23.5 -39t-20.5 -33t-20.5 -30.5t-19 -24t-20.5 -21.5t-19.5 -14t-21.5 -10t-22.5 -2.5q-50 0 -81.5 35.5
t-31.5 99.5q0 73 34 150t86 129q69 69 139 69q66 0 87 -77h8zM354 329q-18 30 -50.5 53.5t-58.5 23.5q-17 0 -33 -16q-30 -30 -54.5 -104t-24.5 -134q0 -38 13.5 -58.5t37.5 -20.5t48.5 29.5t77.5 114.5q14 21 21 33zM297 515h-45l119 182h127z" />
    <glyph glyph-name="acircumflex" unicode="&#xe2;" horiz-adv-x="528" 
d="M376 391l27 77h103l-60 -181l-53 -224l27 -9l74 51l17 -21q-23 -40 -63 -70t-77 -30q-21 0 -55.5 14t-34.5 27q0 9 8.5 36t25 73t22.5 66h-10q-8 -13 -24.5 -40.5t-23.5 -39t-20.5 -33t-20.5 -30.5t-19 -24t-20.5 -21.5t-19.5 -14t-21.5 -10t-22.5 -2.5q-50 0 -81.5 35.5
t-31.5 99.5q0 73 34 150t86 129q69 69 139 69q66 0 87 -77h8zM354 329q-18 30 -50.5 53.5t-58.5 23.5q-17 0 -33 -16q-30 -30 -54.5 -104t-24.5 -134q0 -38 13.5 -58.5t37.5 -20.5t48.5 29.5t77.5 114.5q14 21 21 33zM416 515l-86 120h-2l-118 -120h-46l114 182h118l66 -182
h-46z" />
    <glyph glyph-name="atilde" unicode="&#xe3;" horiz-adv-x="528" 
d="M376 391l27 77h103l-60 -181l-53 -224l27 -9l74 51l17 -21q-23 -40 -63 -70t-77 -30q-21 0 -55.5 14t-34.5 27q0 9 8.5 36t25 73t22.5 66h-10q-8 -13 -24.5 -40.5t-23.5 -39t-20.5 -33t-20.5 -30.5t-19 -24t-20.5 -21.5t-19.5 -14t-21.5 -10t-22.5 -2.5q-50 0 -81.5 35.5
t-31.5 99.5q0 73 34 150t86 129q69 69 139 69q66 0 87 -77h8zM354 329q-18 30 -50.5 53.5t-58.5 23.5q-17 0 -33 -16q-30 -30 -54.5 -104t-24.5 -134q0 -38 13.5 -58.5t37.5 -20.5t48.5 29.5t77.5 114.5q14 21 21 33zM500 658q-17 -71 -46.5 -103t-74.5 -32q-32 0 -81 35.5
t-65 35.5t-25.5 -12.5t-27.5 -49.5h-43q17 71 46 103t74 32q33 0 80.5 -35t63.5 -35q15 0 27 13.5t30 47.5h42z" />
    <glyph glyph-name="adieresis" unicode="&#xe4;" horiz-adv-x="528" 
d="M376 391l27 77h103l-60 -181l-53 -224l27 -9l74 51l17 -21q-23 -40 -63 -70t-77 -30q-21 0 -55.5 14t-34.5 27q0 9 8.5 36t25 73t22.5 66h-10q-8 -13 -24.5 -40.5t-23.5 -39t-20.5 -33t-20.5 -30.5t-19 -24t-20.5 -21.5t-19.5 -14t-21.5 -10t-22.5 -2.5q-50 0 -81.5 35.5
t-31.5 99.5q0 73 34 150t86 129q69 69 139 69q66 0 87 -77h8zM354 329q-18 30 -50.5 53.5t-58.5 23.5q-17 0 -33 -16q-30 -30 -54.5 -104t-24.5 -134q0 -38 13.5 -58.5t37.5 -20.5t48.5 29.5t77.5 114.5q14 21 21 33zM494 606q0 -29 -17.5 -49t-47.5 -20t-47.5 20t-17.5 49
t17.5 49.5t47.5 20.5t47.5 -20.5t17.5 -49.5zM280 606q0 -29 -17.5 -49t-47.5 -20t-48 20t-18 49t18 49.5t48 20.5t47.5 -20.5t17.5 -49.5z" />
    <glyph glyph-name="aring" unicode="&#xe5;" horiz-adv-x="528" 
d="M376 391l27 77h103l-60 -181l-53 -224l27 -9l74 51l17 -21q-23 -40 -63 -70t-77 -30q-21 0 -55.5 14t-34.5 27q0 9 8.5 36t25 73t22.5 66h-10q-8 -13 -24.5 -40.5t-23.5 -39t-20.5 -33t-20.5 -30.5t-19 -24t-20.5 -21.5t-19.5 -14t-21.5 -10t-22.5 -2.5q-50 0 -81.5 35.5
t-31.5 99.5q0 73 34 150t86 129q69 69 139 69q66 0 87 -77h8zM354 329q-18 30 -50.5 53.5t-58.5 23.5q-17 0 -33 -16q-30 -30 -54.5 -104t-24.5 -134q0 -38 13.5 -58.5t37.5 -20.5t48.5 29.5t77.5 114.5q14 21 21 33zM430 613q0 -43 -26.5 -71.5t-71.5 -28.5t-72.5 29
t-26.5 71q1 43 28 71.5t71 28.5q45 0 71.5 -28.5t26.5 -71.5zM396 613q0 28 -17.5 48t-46.5 20t-46.5 -20t-17.5 -48t17.5 -47.5t46.5 -19.5t46.5 19.5t17.5 47.5z" />
    <glyph glyph-name="ae" unicode="&#xe6;" horiz-adv-x="691" 
d="M371 354q83 115 190 115q58 0 90.5 -28t32.5 -72q0 -12 -3 -22t-10.5 -20t-15 -18.5t-23.5 -19t-29 -18.5t-37.5 -21t-44 -23t-52.5 -27t-59 -30v-13q0 -43 24.5 -70.5t62.5 -27.5q30 0 128 66l16 -21q-89 -119 -188 -119q-71 0 -113 46t-44 117v7q-49 -81 -88.5 -125.5
t-76.5 -44.5q-49 0 -79 39.5t-30 105.5q0 73 31.5 145t83.5 124q69 69 139 69q75 0 95 -114zM412 205q99 54 136 86.5t37 72.5q0 18 -26.5 32.5t-47.5 14.5q-19 0 -30 -11q-20 -20 -42 -75.5t-31 -119.5h4zM351 316q-17 37 -51.5 63.5t-60.5 26.5q-17 0 -33 -16
q-30 -30 -51.5 -98.5t-21.5 -129.5q0 -38 12.5 -62t31.5 -24q10 0 20.5 6t21.5 18.5t21 25.5t22.5 34.5t21.5 36.5t22.5 40t21.5 38q3 4 13 23z" />
    <glyph glyph-name="ccedilla" unicode="&#xe7;" horiz-adv-x="426" 
d="M162 -14q-63 8 -98.5 54t-35.5 113q0 116 81 216t190 100q53 0 89 -28.5t36 -71.5q0 -31 -19 -52t-44 -21q-28 0 -41.5 15.5t-13.5 39.5q0 21 12 40q-29 21 -79 21q-7 0 -19 -12q-26 -24 -52.5 -97t-26.5 -137q0 -48 24.5 -77.5t63.5 -29.5q30 0 127 66l16 -21
q-80 -104 -160 -117l-47 -41q60 -2 93.5 -24.5t33.5 -61.5q0 -56 -66 -92.5t-174 -42.5l-6 27q81 10 124.5 32t43.5 53q0 48 -77 48q-38 0 -70 -7l3 24z" />
    <glyph glyph-name="egrave" unicode="&#xe8;" horiz-adv-x="422" 
d="M287 515l-151 182h127l70 -182h-46zM141 157q0 -43 25 -70.5t63 -27.5q30 0 127 66l16 -21q-89 -119 -188 -119q-73 0 -114.5 47.5t-41.5 120.5q0 74 35.5 147t97.5 121t131 48q58 0 90.5 -28t32.5 -72q0 -12 -3 -22t-10.5 -20t-15 -18.5t-23.5 -19t-29 -18.5t-37.5 -21
t-44 -23t-52.5 -27t-59 -30v-13zM143 205q100 55 137 87.5t37 71.5q0 18 -27 32.5t-47 14.5t-31 -11q-19 -19 -41 -75t-31 -120h3z" />
    <glyph glyph-name="eacute" unicode="&#xe9;" horiz-adv-x="422" 
d="M141 157q0 -43 25 -70.5t63 -27.5q30 0 127 66l16 -21q-89 -119 -188 -119q-73 0 -114.5 47.5t-41.5 120.5q0 74 35.5 147t97.5 121t131 48q58 0 90.5 -28t32.5 -72q0 -12 -3 -22t-10.5 -20t-15 -18.5t-23.5 -19t-29 -18.5t-37.5 -21t-44 -23t-52.5 -27t-59 -30v-13z
M143 205q100 55 137 87.5t37 71.5q0 18 -27 32.5t-47 14.5t-31 -11q-19 -19 -41 -75t-31 -120h3zM265 515h-45l119 182h127z" />
    <glyph glyph-name="ecircumflex" unicode="&#xea;" horiz-adv-x="422" 
d="M141 157q0 -43 25 -70.5t63 -27.5q30 0 127 66l16 -21q-89 -119 -188 -119q-73 0 -114.5 47.5t-41.5 120.5q0 74 35.5 147t97.5 121t131 48q58 0 90.5 -28t32.5 -72q0 -12 -3 -22t-10.5 -20t-15 -18.5t-23.5 -19t-29 -18.5t-37.5 -21t-44 -23t-52.5 -27t-59 -30v-13z
M143 205q100 55 137 87.5t37 71.5q0 18 -27 32.5t-47 14.5t-31 -11q-19 -19 -41 -75t-31 -120h3zM371 515l-86 120h-2l-118 -120h-46l114 182h118l66 -182h-46z" />
    <glyph glyph-name="edieresis" unicode="&#xeb;" horiz-adv-x="422" 
d="M141 157q0 -43 25 -70.5t63 -27.5q30 0 127 66l16 -21q-89 -119 -188 -119q-73 0 -114.5 47.5t-41.5 120.5q0 74 35.5 147t97.5 121t131 48q58 0 90.5 -28t32.5 -72q0 -12 -3 -22t-10.5 -20t-15 -18.5t-23.5 -19t-29 -18.5t-37.5 -21t-44 -23t-52.5 -27t-59 -30v-13z
M143 205q100 55 137 87.5t37 71.5q0 18 -27 32.5t-47 14.5t-31 -11q-19 -19 -41 -75t-31 -120h3zM456 606q0 -29 -17.5 -49t-47.5 -20t-47.5 20t-17.5 49t17.5 49.5t47.5 20.5t47.5 -20.5t17.5 -49.5zM242 606q0 -29 -17.5 -49t-47.5 -20t-48 20t-18 49t18 49.5t48 20.5
t47.5 -20.5t17.5 -49.5z" />
    <glyph glyph-name="igrave" unicode="&#xec;" horiz-adv-x="280" 
d="M185 515l-151 182h127l70 -182h-46zM261 84q-23 -40 -62.5 -70t-76.5 -30q-20 0 -55.5 16t-33.5 26l96 362l-30 6l-65 -72l-20 22q20 47 57.5 86t72.5 39q9 0 26.5 -4.5t34 -10.5t28.5 -13.5t10 -13.5l-100 -364l27 -9l74 51z" />
    <glyph glyph-name="iacute" unicode="&#xed;" horiz-adv-x="280" 
d="M153 515h-45l119 182h127zM261 84q-23 -40 -62.5 -70t-76.5 -30q-20 0 -55.5 16t-33.5 26l96 362l-30 6l-65 -72l-20 22q20 47 57.5 86t72.5 39q9 0 26.5 -4.5t34 -10.5t28.5 -13.5t10 -13.5l-100 -364l27 -9l74 51z" />
    <glyph glyph-name="icircumflex" unicode="&#xee;" horiz-adv-x="280" 
d="M261 84q-23 -40 -62.5 -70t-76.5 -30q-20 0 -55.5 16t-33.5 26l96 362l-30 6l-65 -72l-20 22q20 47 57.5 86t72.5 39q9 0 26.5 -4.5t34 -10.5t28.5 -13.5t10 -13.5l-100 -364l27 -9l74 51zM280 515l-86 120h-2l-118 -120h-46l114 182h118l66 -182h-46z" />
    <glyph glyph-name="idieresis" unicode="&#xef;" horiz-adv-x="280" 
d="M365 606q0 -29 -17.5 -49t-47.5 -20t-47.5 20t-17.5 49t17.5 49.5t47.5 20.5t47.5 -20.5t17.5 -49.5zM151 606q0 -29 -17.5 -49t-47.5 -20t-48 20t-18 49t18 49.5t48 20.5t47.5 -20.5t17.5 -49.5zM261 84q-23 -40 -62.5 -70t-76.5 -30q-20 0 -55.5 16t-33.5 26l96 362
l-30 6l-65 -72l-20 22q20 47 57.5 86t72.5 39q9 0 26.5 -4.5t34 -10.5t28.5 -13.5t10 -13.5l-100 -364l27 -9l74 51z" />
    <glyph glyph-name="eth" unicode="&#xf0;" horiz-adv-x="481" 
d="M153 246q-13 -57 -13 -101q0 -47 18 -80t49 -33q29 0 55 30.5t41.5 69t24.5 80.5q12 60 12 101q0 47 -17.5 77.5t-49.5 30.5q-41 0 -73.5 -54.5t-46.5 -120.5zM137 519l11 48l105 26q-30 24 -90 49l24 39q80 -24 139 -70l135 34l-11 -47l-83 -22q96 -96 98 -237
q0 -144 -76 -249t-181 -105q-84 0 -130.5 55.5t-46.5 147.5q0 109 68.5 195t163.5 86q59 0 87 -45q-11 80 -60 134z" />
    <glyph glyph-name="ntilde" unicode="&#xf1;" horiz-adv-x="550" 
d="M528 84q-23 -40 -62.5 -70t-76.5 -30q-21 0 -55 14.5t-34 27.5q0 19 56 189q33 106 33 126q0 15 -14 25t-32 10q-24 0 -56.5 -51.5t-92.5 -175.5l-33 -151l-121 -1l37 150l49 238l-28 7l-66 -70l-20 22q23 48 58.5 86.5t71.5 38.5q23 0 60.5 -11.5t37.5 -24.5
q0 -41 -55 -226h11q84 181 121 218q44 44 96 44q38 0 63 -22.5t25 -57.5q0 -45 -46 -189q-5 -17 -25 -76.5t-20 -60.5l27 -9l74 51zM499 658q-17 -71 -46.5 -103t-74.5 -32q-32 0 -81 35.5t-65 35.5t-25.5 -12.5t-27.5 -49.5h-43q17 71 46 103t74 32q33 0 80.5 -35t63.5 -35
q15 0 27 13.5t30 47.5h42z" />
    <glyph glyph-name="ograve" unicode="&#xf2;" horiz-adv-x="481" 
d="M291 515l-151 182h127l70 -182h-46zM449 265q0 -109 -70 -194.5t-171 -85.5q-84 0 -130.5 55.5t-46.5 147.5q0 109 71 195t171 86q84 0 130 -56t46 -148zM340 313q0 47 -17.5 77.5t-49.5 30.5q-41 0 -73.5 -54.5t-46.5 -120.5q-13 -57 -13 -101q0 -47 18 -80t49 -33
q29 0 55 30.5t41.5 69t24.5 80.5q12 60 12 101z" />
    <glyph glyph-name="oacute" unicode="&#xf3;" horiz-adv-x="481" 
d="M449 265q0 -109 -70 -194.5t-171 -85.5q-84 0 -130.5 55.5t-46.5 147.5q0 109 71 195t171 86q84 0 130 -56t46 -148zM340 313q0 47 -17.5 77.5t-49.5 30.5q-41 0 -73.5 -54.5t-46.5 -120.5q-13 -57 -13 -101q0 -47 18 -80t49 -33q29 0 55 30.5t41.5 69t24.5 80.5
q12 60 12 101zM284 515h-45l119 182h127z" />
    <glyph glyph-name="ocircumflex" unicode="&#xf4;" horiz-adv-x="481" 
d="M449 265q0 -109 -70 -194.5t-171 -85.5q-84 0 -130.5 55.5t-46.5 147.5q0 109 71 195t171 86q84 0 130 -56t46 -148zM340 313q0 47 -17.5 77.5t-49.5 30.5q-41 0 -73.5 -54.5t-46.5 -120.5q-13 -57 -13 -101q0 -47 18 -80t49 -33q29 0 55 30.5t41.5 69t24.5 80.5
q12 60 12 101zM391 515l-86 120h-2l-118 -120h-46l114 182h118l66 -182h-46z" />
    <glyph glyph-name="otilde" unicode="&#xf5;" horiz-adv-x="481" 
d="M449 265q0 -109 -70 -194.5t-171 -85.5q-84 0 -130.5 55.5t-46.5 147.5q0 109 71 195t171 86q84 0 130 -56t46 -148zM340 313q0 47 -17.5 77.5t-49.5 30.5q-41 0 -73.5 -54.5t-46.5 -120.5q-13 -57 -13 -101q0 -47 18 -80t49 -33q29 0 55 30.5t41.5 69t24.5 80.5
q12 60 12 101zM487 658q-17 -71 -46.5 -103t-74.5 -32q-32 0 -81 35.5t-65 35.5t-25.5 -12.5t-27.5 -49.5h-43q17 71 46 103t74 32q33 0 80.5 -35t63.5 -35q15 0 27 13.5t30 47.5h42z" />
    <glyph glyph-name="odieresis" unicode="&#xf6;" horiz-adv-x="481" 
d="M449 265q0 -109 -70 -194.5t-171 -85.5q-84 0 -130.5 55.5t-46.5 147.5q0 109 71 195t171 86q84 0 130 -56t46 -148zM340 313q0 47 -17.5 77.5t-49.5 30.5q-41 0 -73.5 -54.5t-46.5 -120.5q-13 -57 -13 -101q0 -47 18 -80t49 -33q29 0 55 30.5t41.5 69t24.5 80.5
q12 60 12 101zM481 606q0 -29 -17.5 -49t-47.5 -20t-47.5 20t-17.5 49t17.5 49.5t47.5 20.5t47.5 -20.5t17.5 -49.5zM267 606q0 -29 -17.5 -49t-47.5 -20t-48 20t-18 49t18 49.5t48 20.5t47.5 -20.5t17.5 -49.5z" />
    <glyph glyph-name="divide" unicode="&#xf7;" horiz-adv-x="486" 
d="M41 283l3 54h399l3 -54h-405zM296 169q0 -21 -14.5 -36.5t-36.5 -15.5q-23 0 -37.5 15.5t-14.5 36.5t14.5 36t37.5 15t37 -15t14 -36zM296 449q0 -21 -14.5 -36.5t-37.5 -15.5q-22 0 -36.5 15.5t-14.5 36.5t14.5 36.5t36.5 15.5q23 0 37.5 -15.5t14.5 -36.5z" />
    <glyph glyph-name="oslash" unicode="&#xf8;" horiz-adv-x="481" 
d="M249 206q-7 -12 -14.5 -25t-14 -24.5t-13.5 -23.5t-12.5 -22t-11 -19t-9.5 -16t-7 -12t-5 -8l-1 -2q19 -24 46 -24q42 0 75.5 56.5t47.5 124.5q12 52 12 102q0 20 -5 45zM319 401q-18 23 -46 23q-41 0 -75 -56t-48 -122q-12 -52 -12 -101q0 -19 5 -47zM99 20
q-68 56 -68 168q0 109 71 195t171 86q43 0 76 -16l83 145h44l-95 -164q68 -53 68 -169q0 -109 -70 -194.5t-171 -85.5q-46 0 -77 16l-75 -130h-43q39 68 43 75q6 10 13 22.5t12 20.5t9.5 16t6.5 11z" />
    <glyph glyph-name="ugrave" unicode="&#xf9;" horiz-adv-x="550" 
d="M315 515l-151 182h127l70 -182h-46zM25 344q20 47 57.5 86t73.5 39q20 0 56.5 -19t36.5 -32q0 -27 -53 -179q-32 -105 -32 -121q0 -15 14 -28t31 -13q24 0 58 52.5t94 174.5l35 153h121l-42 -150q-13 -65 -24 -117q-19 -99 -27 -129l27 -10l71 51l18 -20
q-24 -41 -62 -69.5t-76 -28.5q-21 0 -55 14.5t-34 27.5q0 44 57 221h-11q-82 -176 -124 -218q-44 -44 -96 -44q-38 0 -63 24.5t-25 59.5q0 46 45 185q9 30 25.5 80t17.5 54l-29 6l-64 -72z" />
    <glyph glyph-name="uacute" unicode="&#xfa;" horiz-adv-x="550" 
d="M25 344q20 47 57.5 86t73.5 39q20 0 56.5 -19t36.5 -32q0 -27 -53 -179q-32 -105 -32 -121q0 -15 14 -28t31 -13q24 0 58 52.5t94 174.5l35 153h121l-42 -150q-13 -65 -24 -117q-19 -99 -27 -129l27 -10l71 51l18 -20q-24 -41 -62 -69.5t-76 -28.5q-21 0 -55 14.5
t-34 27.5q0 44 57 221h-11q-82 -176 -124 -218q-44 -44 -96 -44q-38 0 -63 24.5t-25 59.5q0 46 45 185q9 30 25.5 80t17.5 54l-29 6l-64 -72zM303 515h-45l119 182h127z" />
    <glyph glyph-name="ucircumflex" unicode="&#xfb;" horiz-adv-x="550" 
d="M25 344q20 47 57.5 86t73.5 39q20 0 56.5 -19t36.5 -32q0 -27 -53 -179q-32 -105 -32 -121q0 -15 14 -28t31 -13q24 0 58 52.5t94 174.5l35 153h121l-42 -150q-13 -65 -24 -117q-19 -99 -27 -129l27 -10l71 51l18 -20q-24 -41 -62 -69.5t-76 -28.5q-21 0 -55 14.5
t-34 27.5q0 44 57 221h-11q-82 -176 -124 -218q-44 -44 -96 -44q-38 0 -63 24.5t-25 59.5q0 46 45 185q9 30 25.5 80t17.5 54l-29 6l-64 -72zM420 515l-86 120h-2l-118 -120h-46l114 182h118l66 -182h-46z" />
    <glyph glyph-name="udieresis" unicode="&#xfc;" horiz-adv-x="550" 
d="M25 344q20 47 57.5 86t73.5 39q20 0 56.5 -19t36.5 -32q0 -27 -53 -179q-32 -105 -32 -121q0 -15 14 -28t31 -13q24 0 58 52.5t94 174.5l35 153h121l-42 -150q-13 -65 -24 -117q-19 -99 -27 -129l27 -10l71 51l18 -20q-24 -41 -62 -69.5t-76 -28.5q-21 0 -55 14.5
t-34 27.5q0 44 57 221h-11q-82 -176 -124 -218q-44 -44 -96 -44q-38 0 -63 24.5t-25 59.5q0 46 45 185q9 30 25.5 80t17.5 54l-29 6l-64 -72zM505 606q0 -29 -17.5 -49t-47.5 -20t-47.5 20t-17.5 49t17.5 49.5t47.5 20.5t47.5 -20.5t17.5 -49.5zM291 606q0 -29 -17.5 -49
t-47.5 -20t-48 20t-18 49t18 49.5t48 20.5t47.5 -20.5t17.5 -49.5z" />
    <glyph glyph-name="yacute" unicode="&#xfd;" horiz-adv-x="476" 
d="M480 389q0 -71 -127 -235l-91 -123l-56 -112q-43 -87 -88 -128.5t-101 -41.5q-40 0 -69 23t-29 59q0 26 17 43.5t41 17.5q31 0 51 -22.5t19 -57.5l18 -1l126 167l-68 20l-11 390l-29 6l-64 -72l-20 22q20 47 57.5 86t72.5 39q22 0 59.5 -13.5t37.5 -27.5l-7 -379h13
l156 270v12q-56 23 -56 65q0 31 19.5 52.5t49.5 21.5q34 0 56.5 -22t22.5 -59zM281 515h-45l119 182h127z" />
    <glyph glyph-name="thorn" unicode="&#xfe;" horiz-adv-x="507" 
d="M479 324q0 -73 -31.5 -147t-81.5 -124q-68 -68 -138 -68q-60 0 -92 52h-6l-42 -209q-3 -18 21 -24l65 -11l4 -39h-274l3 39l47 11q20 5 25 24l157 729q6 26 -12 34l-57 27l6 28l204 51l-57 -229l-50 -205h10q57 113 97.5 159.5t91.5 46.5q47 0 78.5 -40t31.5 -105z
M368 292q0 38 -13 63.5t-35 25.5q-25 0 -57 -42t-93 -146l-25 -88q22 -29 53 -51t52 -22q16 0 32 16q34 34 60 109t26 135z" />
    <glyph glyph-name="ydieresis" unicode="&#xff;" horiz-adv-x="476" 
d="M480 389q0 -71 -127 -235l-91 -123l-56 -112q-43 -87 -88 -128.5t-101 -41.5q-40 0 -69 23t-29 59q0 26 17 43.5t41 17.5q31 0 51 -22.5t19 -57.5l18 -1l126 167l-68 20l-11 390l-29 6l-64 -72l-20 22q20 47 57.5 86t72.5 39q22 0 59.5 -13.5t37.5 -27.5l-7 -379h13
l156 270v12q-56 23 -56 65q0 31 19.5 52.5t49.5 21.5q34 0 56.5 -22t22.5 -59zM473 606q0 -29 -17.5 -49t-47.5 -20t-47.5 20t-17.5 49t17.5 49.5t47.5 20.5t47.5 -20.5t17.5 -49.5zM259 606q0 -29 -17.5 -49t-47.5 -20t-48 20t-18 49t18 49.5t48 20.5t47.5 -20.5
t17.5 -49.5z" />
    <glyph glyph-name="dotlessi" unicode="&#x131;" horiz-adv-x="280" 
d="M261 84q-23 -40 -62.5 -70t-76.5 -30q-20 0 -55.5 16t-33.5 26l96 362l-30 6l-65 -72l-20 22q20 47 57.5 86t72.5 39q9 0 26.5 -4.5t34 -10.5t28.5 -13.5t10 -13.5l-100 -364l27 -9l74 51z" />
    <glyph glyph-name="Lslash" unicode="&#x141;" horiz-adv-x="579" 
d="M34 174v48l73 20q0 -1 3 21t8 60t10 73q12 87 21 154q5 19 -20 24l-46 11l-2 40h284l-4 -40l-53 -11q-23 -6 -26 -24l-18 -135q-2 -12 -4 -28.5t-3.5 -28t-3.5 -25t-3 -22.5t-2 -17t-2 -12l-1 -3l95 26v-49l-50 -14q-10 -3 -23.5 -6.5t-20.5 -5.5l-7 -2l-25 -183h30
q98 0 134 15t58 63l37 83h71l-49 -206h-489l4 40l49 11q21 4 26 24l16 117z" />
    <glyph glyph-name="lslash" unicode="&#x142;" horiz-adv-x="295" 
d="M-1 169v48l88 24l65 316q6 26 -11 34l-58 27l7 28l199 51l-92 -426l83 23v-49q-37 -11 -47 -13q-10 -3 -22.5 -6t-18.5 -5l-6 -2l-34 -156l27 -9l74 51l17 -21q-23 -40 -62.5 -70t-76.5 -30q-18 0 -52 25.5t-32 36.5l30 144z" />
    <glyph glyph-name="OE" unicode="&#x152;" horiz-adv-x="968" 
d="M882 0h-518q-150 0 -233 75.5t-83 200.5q0 141 103 243q49 49 126.5 77.5t170.5 28.5h519l-32 -206h-64l-11 83q-6 53 -38 65.5t-152 12.5h-39l-34 -242h19q44 0 66.5 7.5t34.5 28.5l28 64h51l-55 -242h-51l1 64q0 19 -16 26t-69 7h-15l-33 -248h43q122 0 159.5 13
t61.5 65l34 74h72zM428 580q-103 -4 -169.5 -85t-66.5 -220q0 -108 49 -168.5t144 -60.5h40l71 519z" />
    <glyph glyph-name="oe" unicode="&#x153;" horiz-adv-x="716" 
d="M709 369q0 -12 -3 -22t-10.5 -20t-15 -18.5t-23.5 -19t-29 -18.5t-37.5 -21t-44 -23t-52.5 -27t-59 -30v-13q0 -43 25 -70.5t63 -27.5q30 0 127 66l16 -21q-89 -119 -188 -119q-88 0 -121 73q-65 -73 -149 -73t-130.5 55.5t-46.5 147.5q0 109 70 195t172 86
q105 0 142 -91q68 91 171 91q58 0 90.5 -28t32.5 -72zM437 205q100 55 137 87.5t37 71.5q0 18 -27 32.5t-47 14.5t-31 -11q-19 -19 -41 -75t-31 -120h3zM340 313q0 47 -17.5 77.5t-49.5 30.5q-41 0 -73.5 -54.5t-46.5 -120.5q-13 -57 -13 -101q0 -47 18 -80t49 -33
q29 0 55 30.5t41.5 69t24.5 80.5q12 60 12 101z" />
    <glyph glyph-name="Scaron" unicode="&#x160;" horiz-adv-x="535" 
d="M480 183q0 -91 -69.5 -144.5t-177.5 -53.5t-210 33l17 192l64 -1l31 -150q49 -22 112 -22q54 0 84 26.5t31 70.5q0 22 -8.5 39.5t-26 32.5t-36 26.5t-45.5 27.5q-7 4 -11 6q-85 46 -121 85t-36 109q0 75 67 126.5t164 51.5q64 0 158 -23q0 2 28 9q4 1 8 2.5t9.5 3
t9.5 2.5l-27 -205l-63 2l-21 134q-54 22 -114 22q-41 0 -70.5 -22.5t-29.5 -54.5q0 -24 8.5 -43t30.5 -37t39 -28.5t55 -31.5q75 -40 112.5 -80t37.5 -105zM388 682h-119l-64 182h44l86 -120h2l119 120h45z" />
    <glyph glyph-name="scaron" unicode="&#x161;" horiz-adv-x="383" 
d="M380 384q0 -29 -16 -46t-43 -17q-24 0 -38.5 15.5t-14.5 38.5q0 13 6 24q-37 20 -82 25q-13 -7 -27 -27t-14 -30q-1 -9 3.5 -19t14.5 -21.5t18.5 -20t22.5 -22t20 -19.5q38 -36 52.5 -50.5t30.5 -42t15 -52.5q-2 -60 -58 -97.5t-127 -37.5q-62 0 -105 21t-43 67
q0 28 16 45t45 17q23 0 37 -15t14 -39q0 -13 -6 -24q51 -24 95 -26q12 8 25.5 28.5t13.5 33.5q1 8 -2.5 17t-14 20.5t-17 18.5t-23.5 22t-22 20q-50 44 -75 77t-23 68q4 62 57 97.5t121 35.5q144 0 144 -85zM307 515h-119l-64 182h44l86 -120h2l119 120h45z" />
    <glyph glyph-name="Ydieresis" unicode="&#x178;" horiz-adv-x="597" 
d="M655 584l-24 -7q-29 -7 -53 -27t-64 -78l-144 -209l-24 -188q-3 -19 20 -24l59 -11l-1 -40h-307l6 40l64 11q21 4 26 24l24 182l-122 265q-13 25 -24 36t-29 16l-30 10l-3 41h287l-3 -41l-40 -6q-26 -4 -26.5 -27t20.5 -71l71 -174h8l115 173q32 47 33 69.5t-30 28.5
l-36 7l-3 41h233zM548 773q0 -29 -17.5 -49t-47.5 -20t-47.5 20t-17.5 49t17.5 49.5t47.5 20.5t47.5 -20.5t17.5 -49.5zM334 773q0 -29 -17.5 -49t-47.5 -20t-48 20t-18 49t18 49.5t48 20.5t47.5 -20.5t17.5 -49.5z" />
    <glyph glyph-name="Zcaron" unicode="&#x17d;" horiz-adv-x="602" 
d="M511 0h-507l7 45l443 526v8h-103q-89 0 -119 -15.5t-55 -69.5l-31 -77h-67l27 208h512l-6 -46l-448 -526l-1 -8h105q53 0 85.5 4t52 17t28 24.5t22.5 37.5l32 72h71zM432 682h-119l-64 182h44l86 -120h2l119 120h45z" />
    <glyph glyph-name="zcaron" unicode="&#x17e;" horiz-adv-x="424" 
d="M297 322q-60 20 -156 99l-16 -15q22 -28 22 -52q0 -23 -13.5 -36.5t-36.5 -15.5q-28 -2 -43 13.5t-15 39.5q0 41 38.5 75t96.5 38q36 0 62.5 -9.5t42.5 -27.5t24 -32.5t17 -37.5q2 0 4 1h3h5l27 107q31 2 53 -16t22 -46q0 -35 -26 -60t-74 -36l-202 -175q18 -7 45 -22.5
t42 -26t47.5 -34.5t33.5 -25l16 15q-24 29 -24 54q0 21 14.5 35t37.5 15q26 2 40.5 -14t14.5 -40q0 -42 -35 -76t-95 -40q-66 0 -102.5 32t-56.5 89h-8q-4 0 -5 -1l-28 -111q-32 -2 -54 16.5t-22 45.5q0 72 97 94zM323 515h-119l-64 182h44l86 -120h2l119 120h45z" />
    <glyph glyph-name="florin" unicode="&#x192;" horiz-adv-x="540" 
d="M565 549q0 -29 -17.5 -49.5t-44.5 -20.5q-33 0 -52.5 24t-21.5 64l-47 -9q-6 -13 -13 -41.5t-15.5 -70t-12.5 -58.5h127l4 -57h-139q-21 -109 -47 -179.5t-70 -115.5q-53 -52 -133 -52q-42 0 -70.5 22.5t-28.5 57.5q0 27 16.5 44t41.5 17q31 0 51 -21.5t23 -55.5l55 16
q25 64 38 163l13 97l-87 7l3 34l95 31q29 118 84 174q28 30 71 48t77 18q44 0 72 -24.5t28 -62.5z" />
    <glyph glyph-name="circumflex" unicode="&#x2c6;" 
d="M330 515l-86 120h-2l-118 -120h-46l114 182h118l66 -182h-46z" />
    <glyph glyph-name="caron" unicode="&#x2c7;" 
d="M286 515h-119l-64 182h44l86 -120h2l119 120h45z" />
    <glyph glyph-name="breve" unicode="&#x2d8;" 
d="M402 697q-52 -187 -176 -187q-65 0 -93 49t-32 138h44q14 -58 33.5 -89t55.5 -31t64 30.5t61 89.5h43z" />
    <glyph glyph-name="dotaccent" unicode="&#x2d9;" 
d="M315 611q0 -30 -18.5 -50.5t-49.5 -20.5t-48.5 20t-17.5 51t17.5 51.5t48.5 20.5t49.5 -21t18.5 -51z" />
    <glyph glyph-name="ring" unicode="&#x2da;" 
d="M346 613q0 -43 -26.5 -71.5t-71.5 -28.5t-72.5 29t-26.5 71q1 43 28 71.5t71 28.5q45 0 71.5 -28.5t26.5 -71.5zM312 613q0 28 -17.5 48t-46.5 20t-46.5 -20t-17.5 -48t17.5 -47.5t46.5 -19.5t46.5 19.5t17.5 47.5z" />
    <glyph glyph-name="ogonek" unicode="&#x2db;" 
d="M255 -189q-60 -49 -122 -49q-46 0 -77.5 26.5t-31.5 69.5q0 51 46 94.5t117 68.5h56q-70 -31 -106.5 -71.5t-36.5 -75.5q0 -27 17.5 -42.5t50.5 -15.5q38 0 80 21z" />
    <glyph glyph-name="tilde" unicode="&#x2dc;" 
d="M419 658q-17 -71 -46.5 -103t-74.5 -32q-32 0 -81 35.5t-65 35.5t-25.5 -12.5t-27.5 -49.5h-43q17 71 46 103t74 32q33 0 80.5 -35t63.5 -35q15 0 27 13.5t30 47.5h42z" />
    <glyph glyph-name="hungarumlaut" unicode="&#x2dd;" 
d="M311 515h-41l116 182h119zM135 515h-42l117 182h119z" />
    <glyph glyph-name="Pi" unicode="&#x3a0;" horiz-adv-x="517" 
d="M551 586l-56 -11q-22 -4 -25 -24l-50 -362q-14 -101 -79 -152t-160 -51q-78 0 -134 40t-56 101q0 35 22 57t55 21q27 -1 45 -17.5t18 -42.5q0 -37 -28 -63q11 -21 35 -35t48 -14q93 0 112 145l48 373q2 19 -20 24l-67 11l-3 39h298z" />
    <glyph glyph-name="endash" unicode="&#x2013;" horiz-adv-x="470" 
d="M31 290l3 60h406l3 -60h-412z" />
    <glyph glyph-name="emdash" unicode="&#x2014;" horiz-adv-x="940" 
d="M31 215l3 60h876l3 -60h-882z" />
    <glyph glyph-name="quoteleft" unicode="&#x2018;" horiz-adv-x="242" 
d="M222 412q-3 -26 -25.5 -44.5t-53.5 -18.5q-41 0 -66.5 28.5t-25.5 66.5q0 61 60 121t152 99l20 -24q-51 -29 -86.5 -67.5t-35.5 -75.5q0 -15 6.5 -29t15.5 -23.5t17.5 -16.5t15 -11t6.5 -5z" />
    <glyph glyph-name="quoteright" unicode="&#x2019;" horiz-adv-x="242" 
d="M256 559q0 -112 -188 -209l-25 24q47 25 79 62t32 71q0 16 -7 30.5t-17 24.5t-20.5 17.5t-17.5 11.5l-7 4q0 25 23 44.5t54 19.5q40 0 67 -29.5t27 -70.5z" />
    <glyph glyph-name="quotesinglbase" unicode="&#x201a;" horiz-adv-x="242" 
d="M175 38q0 -112 -188 -209l-25 24q47 25 79 62t32 71q0 16 -7 30.5t-17 24.5t-20.5 17.5t-17.5 11.5l-7 4q0 25 23 44.5t54 19.5q40 0 67 -29.5t27 -70.5z" />
    <glyph glyph-name="quotedblleft" unicode="&#x201c;" horiz-adv-x="458" 
d="M445 412q0 -24 -23 -43.5t-53 -19.5q-41 0 -68 29.5t-27 70.5q0 112 188 209l25 -24q-110 -65 -110 -134q0 -16 7 -30.5t17 -24t20 -17t17 -11.5t7 -5zM223 412q0 -24 -23.5 -43.5t-53.5 -19.5q-41 0 -68 29t-27 71q0 59 53 112.5t136 96.5l24 -24q-110 -65 -110 -134
q0 -16 7 -30.5t17 -24t20.5 -17t17.5 -11.5t7 -5z" />
    <glyph glyph-name="quotedblright" unicode="&#x201d;" horiz-adv-x="458" 
d="M482 559q0 -112 -188 -209l-24 24q47 25 78.5 61.5t31.5 71.5q0 16 -7 30.5t-17 24.5t-20.5 17.5t-17.5 11.5l-7 4q0 25 23 44.5t54 19.5q40 0 67 -29.5t27 -70.5zM260 559q0 -59 -53 -112.5t-136 -96.5l-24 24q47 25 78.5 61.5t31.5 71.5q0 16 -7 30.5t-17 24.5
t-20 17.5t-17 11.5l-7 4q0 25 23 44.5t53 19.5q40 0 67.5 -29.5t27.5 -70.5z" />
    <glyph glyph-name="quotedblbase" unicode="&#x201e;" horiz-adv-x="458" 
d="M401 38q0 -112 -188 -209l-24 24q47 25 78.5 61.5t31.5 71.5q0 16 -7 30.5t-17.5 24.5t-20.5 17.5t-17 11.5l-7 4q0 25 23 44.5t54 19.5q40 0 67 -29.5t27 -70.5zM179 38q0 -59 -53 -112.5t-136 -96.5l-24 24q47 25 78.5 61.5t31.5 71.5q0 16 -7 30.5t-17 24.5t-20 17.5
t-17 11.5l-7 4q0 25 23 44.5t53 19.5q40 0 67.5 -29.5t27.5 -70.5z" />
    <glyph glyph-name="dagger" unicode="&#x2020;" horiz-adv-x="470" 
d="M465 388h-180v-543h-45v543h-179l-4 46h183v192h45v-192h184z" />
    <glyph glyph-name="daggerdbl" unicode="&#x2021;" horiz-adv-x="470" 
d="M286 20v-175h-44v175h-183l4 45h179v338h-179l-4 45h183v178h44v-178h184l-4 -45h-180v-338h180l4 -45h-184z" />
    <glyph glyph-name="bullet" unicode="&#x2022;" horiz-adv-x="455" 
d="M420 232q0 -21 -20 -71t-36 -66q-15 -15 -65 -35.5t-72 -20.5q-21 0 -71 21t-64 35q-15 17 -36 66.5t-21 70.5t21 71t36 65t65 35.5t71 20.5t72 -20.5t64 -35.5q15 -13 35.5 -64t20.5 -72z" />
    <glyph glyph-name="ellipsis" unicode="&#x2026;" horiz-adv-x="696" 
d="M637 62q0 -31 -22.5 -54.5t-54.5 -23.5q-33 0 -55.5 23t-22.5 55t22.5 54.5t55.5 22.5t55 -22.5t22 -54.5zM405 62q0 -31 -22.5 -54.5t-54.5 -23.5q-33 0 -55.5 23t-22.5 55t22.5 54.5t55.5 22.5t55 -22.5t22 -54.5zM173 62q0 -31 -22.5 -54.5t-54.5 -23.5
q-33 0 -55.5 23t-22.5 55t22.5 54.5t55.5 22.5t55 -22.5t22 -54.5z" />
    <glyph glyph-name="perthousand" unicode="&#x2030;" horiz-adv-x="1126" 
d="M390 500q0 -78 -53.5 -132.5t-130.5 -54.5q-66 0 -111 41t-45 108q0 76 53.5 130.5t128.5 54.5q67 0 112.5 -40t45.5 -107zM99 -15h-59l630 654h59zM724 164q0 -78 -54 -132.5t-130 -54.5q-68 0 -111 39.5t-43 107.5q0 78 52.5 132.5t129.5 54.5q66 0 111 -40t45 -107z
M340 490q0 50 -31 81.5t-81 31.5q-54 0 -92 -42t-38 -97q0 -49 32 -79t80 -30q55 0 92.5 39t37.5 96zM676 158q0 47 -32.5 78t-79.5 31q-54 0 -92 -42t-38 -97q0 -49 31 -79t79 -30q55 0 93.5 41.5t38.5 97.5zM1105 164q0 -78 -54 -132.5t-130 -54.5q-68 0 -111 39.5
t-43 107.5q0 78 52.5 132.5t129.5 54.5q66 0 111 -40t45 -107zM1057 158q0 47 -32.5 78t-79.5 31q-54 0 -92 -42t-38 -97q0 -49 31 -79t79 -30q55 0 93.5 41.5t38.5 97.5z" />
    <glyph glyph-name="guilsinglleft" unicode="&#x2039;" horiz-adv-x="300" 
d="M237 41l-214 154v56l260 158l9 -21l-181 -167l139 -159z" />
    <glyph glyph-name="guilsinglright" unicode="&#x203a;" horiz-adv-x="300" 
d="M25 37l-9 21l165 163l-124 163l13 21l214 -154l-6 -60z" />
    <glyph glyph-name="fraction" unicode="&#x2044;" horiz-adv-x="617" 
d="M65 -14h-65l554 652h65z" />
    <glyph glyph-name="Euro" unicode="&#x20ac;" horiz-adv-x="519" 
d="M187 216q21 -157 151 -157q65 0 134 57l14 -20q-30 -50 -81 -80.5t-109 -30.5q-96 0 -153.5 64.5t-67.5 166.5h-65l3 47h60v6q0 31 7 71h-54l3 47h62q31 108 109 175.5t180 67.5q70 0 110.5 -25t41.5 -62q0 -29 -16 -47t-42 -18q-31 0 -49 27t-16 63q-21 15 -54 15
q-57 0 -99.5 -53t-60.5 -143h202l3 -47h-213q-4 -31 -4 -66v-11h198l3 -47h-197z" />
    <glyph glyph-name="trademark" unicode="&#x2122;" horiz-adv-x="937" 
d="M762 253l1 30l33 7q8 2 10.5 12.5t1.5 46.5l-5 232h-10l-97 -316h-68l-75 319h-10l-6 -195q-2 -67 -0.5 -82t11.5 -19l32 -5l2 -30h-139l2 30l30 5q8 1 12 7t7 27t4 67l6 185q0 12 -12 15l-35 6l-2 30h170l55 -272h10l78 272h168l-2 -30l-33 -6q-14 -4 -14 -15l4 -225
q0 -35 4.5 -45.5t15.5 -13.5l30 -7l2 -30h-181zM406 480h-41l-5 19q-14 58 -30 76t-61 18h-1v-290q0 -10 12 -14l39 -6l2 -30h-188l2 30l39 6q13 4 13 14v290h-1q-39 0 -55.5 -19.5t-33.5 -74.5l-6 -19h-38l8 145h345v-145z" />
    <glyph glyph-name="minus" unicode="&#x2212;" horiz-adv-x="486" 
d="M41 283l3 54h399l3 -54h-405z" />
    <glyph glyph-name="apple" unicode="&#xf8ff;" horiz-adv-x="758" 
d="M583 236l69 -189l-189 69l-85 -181l-84 180l-187 -68l68 187l-181 86l181 83l-68 189l187 -69l86 181l83 -181l189 69l-69 -189l180 -82zM531 382l50 139l-139 -50l-63 133l-63 -133l-139 50l51 -139l-134 -63l134 -63l-51 -138l139 51l62 -135l64 135l139 -51l-50 140
l132 62z" />
    <glyph glyph-name="ff" unicode="&#xfb00;" horiz-adv-x="558" 
d="M407 528q-29 0 -48 28t-26 69l-67 -13q-7 -20 -36 -164h154q13 52 23 80zM468 628q63 66 151 66q48 0 77 -24.5t29 -63.5q0 -28 -17.5 -48t-44.5 -20q-31 0 -51 27.5t-24 69.5l-52 -9q-6 -13 -12 -36t-9.5 -41.5t-10 -52t-9.5 -48.5h122l4 -57h-138l-53 -268
q-45 -217 -112 -287q-51 -52 -121 -52q-42 0 -70 22t-28 57q0 27 16.5 44.5t41.5 17.5q31 0 50.5 -24t22.5 -59l49 17q19 45 39 168l54 364h-154l-58 -298q-45 -217 -112 -287q-52 -52 -125 -52q-42 0 -70.5 22.5t-28.5 57.5q0 27 16.5 44t41.5 17q31 0 51 -23.5t23 -58.5
l52 16q20 52 39 169l60 386l-87 7l3 34l96 31q21 103 78 160q66 66 157 66q39 0 67 -17t40 -44z" />
    <glyph glyph-name="fi" unicode="&#xfb01;" horiz-adv-x="538" 
d="M160 93q-45 -217 -112 -287q-52 -52 -125 -52q-42 0 -70.5 22.5t-28.5 57.5q0 27 16.5 44t41.5 17q31 0 51 -23.5t23 -58.5l52 16q20 52 39 169l60 386l-87 7l3 34l96 31q16 104 83 171q71 71 184 71q57 0 90.5 -26.5t33.5 -68.5q0 -27 -18 -46.5t-45 -19.5q-58 0 -79 97
l-93 -13q-25 -56 -45 -173h118q31 21 55 21q18 0 54 -25t32 -37l-91 -336l18 -9l82 58l17 -22q-25 -44 -65.5 -78.5t-77.5 -34.5q-19 0 -52 25t-31 36l90 339l-8 6h-153z" />
    <glyph glyph-name="fl" unicode="&#xfb02;" horiz-adv-x="544" 
d="M218 391l-58 -298q-45 -217 -112 -287q-52 -52 -125 -52q-42 0 -70.5 22.5t-28.5 57.5q0 27 16.5 44t41.5 17q31 0 51 -23.5t23 -58.5l54 16q24 58 39 169l56 386l-85 7l3 34l96 31q16 104 83 171q71 71 184 71q47 0 80 -20l77 19l-135 -626l19 -9l81 58l18 -22
q-29 -45 -68 -79t-75 -34q-18 0 -51 25t-31 36l71 345h-154zM406 551q-24 20 -38 83l-93 -13q-25 -56 -45 -173h154z" />
    <glyph glyph-name="ffi" unicode="&#xfb03;" horiz-adv-x="803" 
d="M472 632q71 66 179 66q57 0 90.5 -26.5t33.5 -68.5q0 -27 -18 -46.5t-45 -19.5q-58 0 -79 97l-95 -13q-22 -49 -43 -173h118q31 21 55 21q18 0 54 -25t32 -37l-91 -336l18 -9l82 58l17 -22q-25 -44 -65.5 -78.5t-77.5 -34.5q-19 0 -52 25t-31 36l90 339l-8 6h-153
l-53 -268q-45 -217 -112 -287q-51 -52 -121 -52q-42 0 -70 22t-28 57q0 27 16.5 44.5t41.5 17.5q31 0 50.5 -24t22.5 -59l49 17q19 45 39 168l54 364h-154l-58 -298q-45 -217 -112 -287q-52 -52 -125 -52q-42 0 -70.5 22.5t-28.5 57.5q0 27 16.5 44t41.5 17q31 0 51 -23.5
t23 -58.5l52 16q20 52 39 169l60 386l-87 7l3 34l96 31q18 108 80 168q34 34 71 50.5t92 16.5q40 0 68.5 -16.5t41.5 -42.5zM407 536q-25 5 -42.5 32t-23.5 63l-73 -12q-20 -63 -38 -171h154q13 65 23 88z" />
    <glyph glyph-name="ffl" unicode="&#xfb04;" horiz-adv-x="809" 
d="M671 551q-25 21 -38 83l-95 -13q-22 -49 -43 -173h154zM407 536q-25 5 -42.5 32t-23.5 63l-73 -12q-20 -63 -38 -171h154q13 65 23 88zM472 632q71 66 179 66q47 0 80 -20l77 19l-135 -626l19 -9l81 58l18 -22q-29 -45 -68 -79t-75 -34q-18 0 -51 25t-31 36l71 345h-154
l-53 -268q-45 -217 -112 -287q-51 -52 -121 -52q-42 0 -70 22t-28 57q0 27 16.5 44.5t41.5 17.5q31 0 50.5 -24t22.5 -59l49 17q19 45 39 168l54 364h-154l-58 -298q-45 -217 -112 -287q-52 -52 -125 -52q-42 0 -70.5 22.5t-28.5 57.5q0 27 16.5 44t41.5 17q31 0 51 -23.5
t23 -58.5l52 16q20 52 39 169l60 386l-87 7l3 34l96 31q18 108 80 168q34 34 71 50.5t92 16.5q40 0 68.5 -16.5t41.5 -42.5z" />
    <glyph glyph-name="CR" horiz-adv-x="182" 
 />
    </font>
</defs>
</svg>
